<svg preserveAspectRatio="none" width="100%" height="100%" overflow="visible" style="display: block;" viewBox="0 0 210 30.5691" fill="none" xmlns="http://www.w3.org/2000/svg">
<g id="Group 880">
<g id="Vector">
<path d="M60.7174 21.7967C60.7168 22.6364 60.5782 23.4209 60.3015 24.1502C60.0249 24.8795 59.6448 25.5468 59.1612 26.1521C58.6776 26.7436 58.1113 27.2731 57.4621 27.7406C56.8268 28.2081 56.1363 28.5999 55.3907 28.9159C54.6589 29.232 53.8995 29.4723 53.1125 29.6369C52.3256 29.7877 51.5525 29.8628 50.7933 29.8622L33.2558 29.8489L33.2784 0.117142L49.3045 0.129288C50.0085 0.129821 50.7469 0.18544 51.5199 0.296143C52.2928 0.393082 53.045 0.551947 53.7764 0.772737C54.5216 0.993537 55.2254 1.28313 55.8877 1.64151C56.5638 1.99991 57.1501 2.44082 57.6467 2.96426C58.157 3.47394 58.5569 4.06613 58.8462 4.74082C59.1494 5.41552 59.3007 6.18646 59.3 7.05364C59.2994 7.87952 59.1332 8.62957 58.8014 9.30379C58.4696 9.97801 58.0205 10.5833 57.4541 11.1197C56.9016 11.6424 56.2593 12.1099 55.5274 12.5223C54.8093 12.9209 54.0499 13.2713 53.249 13.5735C54.2565 13.8496 55.2086 14.2151 56.1055 14.67C57.0162 15.1249 57.8095 15.683 58.4854 16.3442C59.1751 17.0054 59.7197 17.7904 60.1193 18.6992C60.519 19.5942 60.7183 20.6267 60.7174 21.7967ZM50.9551 7.76996C50.9564 6.09066 50.5087 4.86526 49.6121 4.09376C48.7292 3.32227 47.4665 2.9359 45.8238 2.93465L41.4964 2.93137L41.489 12.5736L45.1125 12.5763C45.8579 12.5769 46.5827 12.4879 47.2868 12.3095C47.9909 12.1174 48.6123 11.8288 49.1509 11.4438C49.7034 11.045 50.1386 10.5429 50.4565 9.93753C50.7883 9.33213 50.9545 8.60961 50.9551 7.76996ZM52.3942 21.2742C52.3948 20.4621 52.2919 19.705 52.0854 19.0028C51.8789 18.2869 51.5618 17.6741 51.1343 17.1645C50.7068 16.6411 50.1688 16.2347 49.5202 15.9451C48.8855 15.6418 48.1333 15.4898 47.2637 15.4892L41.4868 15.4848L41.4781 26.9646L46.5302 26.9684C47.3722 26.969 48.1523 26.832 48.8703 26.5572C49.5883 26.2825 50.2097 25.8975 50.7346 25.4024C51.2595 24.9073 51.6672 24.3088 51.9576 23.607C52.248 22.9053 52.3936 22.1277 52.3942 21.2742Z" fill="white"/>
<path d="M87.0487 29.8897L65.6392 29.8735L65.6619 0.141685L87.0714 0.157911L87.0685 3.95697L73.8791 3.94698L73.8721 13.1349L84.0592 13.1426L84.0563 16.9211L73.8692 16.9133L73.8622 26.0806L87.0516 26.0906L87.0487 29.8897Z" fill="white"/>
<path d="M134.653 0.193972C134.279 1.30863 133.954 2.46462 133.677 3.66194C133.4 4.8455 133.171 6.03597 132.991 7.23337C132.81 8.417 132.672 9.58689 132.574 10.7431C132.49 11.8992 132.448 12.9935 132.447 14.0258C132.447 14.7829 132.446 15.6363 132.445 16.5861C132.458 17.5221 132.513 18.4788 132.609 19.4562C132.719 20.4335 132.89 21.3903 133.124 22.3265C133.358 23.2489 133.703 24.0751 134.158 24.8049C134.626 25.5348 135.22 26.1203 135.937 26.5613C136.668 27.0023 137.572 27.2232 138.649 27.224C139.601 27.2248 140.416 27.0671 141.093 26.751C141.783 26.4212 142.363 25.9811 142.833 25.4309C143.316 24.8807 143.696 24.2478 143.973 23.5322C144.263 22.8167 144.485 22.0667 144.637 21.2822C144.804 20.4978 144.908 19.7064 144.95 18.908C145.006 18.096 145.034 17.3252 145.034 16.5956L145.047 0.201849L153.267 0.208079L153.255 15.3217C153.254 17.4828 152.907 19.4922 152.215 21.3499C151.524 23.2076 150.55 24.8242 149.292 26.1998C148.035 27.5615 146.516 28.634 144.735 29.4172C142.953 30.1867 140.979 30.5706 138.812 30.569C137.321 30.5679 135.934 30.3535 134.651 29.9258C133.367 29.5119 132.187 28.9397 131.111 28.2094C130.049 27.4653 129.097 26.5905 128.256 25.585C127.429 24.5658 126.732 23.4572 126.167 22.2593C125.616 21.0613 125.196 19.8015 124.907 18.4799C124.618 17.1445 124.488 15.7955 124.517 14.4328L124.517 14.0198C124.532 12.9187 124.643 11.7832 124.851 10.6133C125.059 9.42971 125.336 8.24616 125.682 7.06265C126.042 5.87916 126.471 4.70948 126.968 3.55362C127.466 2.384 128.019 1.26259 128.627 0.189405L134.653 0.193972Z" fill="white"/>
<path d="M173.432 29.9552L165.212 29.9489L165.232 4.01621L157.115 4.01006L157.118 0.210998L181.571 0.229531L181.568 4.02859L173.452 4.02244L173.432 29.9552Z" fill="white"/>
<path d="M210 0.251076L200.338 17.4841L200.329 29.9756L192.108 29.9693L192.118 17.9321L182.379 0.230143L190.765 0.236498L197.234 15.1899L204.202 0.246682L210 0.251076Z" fill="white"/>
<path d="M107.175 2.83711C106.485 2.50624 107.564 0.0183913 106.612 0.0176694C108.793 0.0193224 111.152 -0.14509 112.932 0.640848C114.698 1.41301 116.216 2.48781 117.485 3.86524C118.74 5.2289 119.712 6.84011 120.4 8.69887C121.089 10.5576 121.433 12.5675 121.431 14.7286L121.42 29.8423L113.2 29.836L113.205 22.6096L104.281 22.6028L104.284 19.196L113.208 19.2028L113.212 13.4423C113.213 12.7265 113.192 11.9694 113.152 11.171C113.097 10.3589 112.994 9.56043 112.843 8.77573C112.678 7.97725 112.458 7.22002 112.182 6.50405C111.893 5.78807 111.514 5.16148 111.045 4.6243C110.562 4.07335 108.765 2.6272 107.175 2.83711Z" fill="white"/>
<path d="M107.175 2.83711C109.896 1.78149 107.657 0.0172916 107.657 0.0172916C105.476 0.0156387 103.813 -0.157123 102.032 0.626116C100.264 1.3956 98.7449 2.4681 97.474 3.84361C96.2168 5.20536 95.2424 6.81509 94.5508 8.67281C93.8592 10.5305 93.5126 12.5399 93.5109 14.701L93.4994 29.8146L101.719 29.8209L101.725 22.5944L110.649 22.6011L110.652 19.1944L101.728 19.1876L101.732 13.4271C101.733 12.7113 101.754 11.9543 101.796 11.156C101.852 10.3439 101.956 9.5456 102.108 8.76112C102.275 7.9629 102.496 7.206 102.773 6.49045C103.063 5.7749 103.443 5.1489 103.913 4.61243C104.396 4.06221 105.938 2.6272 107.175 2.83711Z" fill="white"/>
</g>
<path id="Vector_2" d="M8.23856 29.8926H0L0 0.0208818H8.23856V14.2514C10.7841 12.3015 13.1568 10.1372 15.3565 7.75848C17.5701 5.37981 19.4723 2.79369 21.0633 0.000137001H26.6871C25.2206 2.50327 23.5397 4.84046 21.6444 7.01169C19.749 9.18292 17.6876 11.1951 15.4603 13.0483L27.3927 29.8926H18.8013L9.81571 17.1971C9.55285 17.3769 9.28999 17.5498 9.02713 17.7157C8.77811 17.8817 8.51525 18.0476 8.23856 18.2136V29.8926Z" fill="white"/>
<path id="Star 7" d="M24.5768 18.509L23.6232 15.6948C23.4527 15.1914 23.0578 14.7959 22.5546 14.6246L19.7497 13.6694L22.6932 12.2879C23.1145 12.0901 23.4371 11.7292 23.5865 11.2884L24.5767 8.36567L25.6263 11.2206C25.7727 11.6189 26.0619 11.9485 26.4377 12.1454L29.2416 13.6148L26.5966 14.6153C26.1255 14.7935 25.7569 15.1703 25.5891 15.6451L24.5768 18.509Z" fill="white"/>
</g>
</svg>
