<svg preserveAspectRatio="none" width="100%" height="100%" overflow="visible" style="display: block;" viewBox="0 0 521.989 75.9842" fill="none" xmlns="http://www.w3.org/2000/svg">
<g id="Group 880">
<g id="Vector">
<path d="M150.923 54.1793C150.921 56.2664 150.577 58.2163 149.889 60.0292C149.201 61.842 148.257 63.5007 147.055 65.0052C145.853 66.4755 144.445 67.7917 142.831 68.9538C141.252 70.1159 139.536 71.0897 137.682 71.8752C135.863 72.6608 133.976 73.2581 132.02 73.6672C130.064 74.0421 128.142 74.2288 126.255 74.2274L82.6625 74.1943L82.7188 0.291221L122.554 0.321412C124.304 0.322738 126.14 0.460987 128.061 0.736158C129.982 0.977115 131.852 1.372 133.67 1.92081C135.522 2.46964 137.272 3.18947 138.918 4.08029C140.598 4.97114 142.056 6.0671 143.29 7.36819C144.558 8.63508 145.552 10.1071 146.272 11.7841C147.025 13.4612 147.401 15.3775 147.4 17.533C147.398 19.5858 146.985 21.4502 146.16 23.1261C145.335 24.802 144.219 26.3066 142.811 27.6399C141.438 28.939 139.841 30.1011 138.022 31.1261C136.237 32.117 134.349 32.988 132.359 33.7392C134.863 34.4254 137.23 35.3339 139.459 36.4646C141.723 37.5954 143.695 38.9826 145.375 40.6262C147.089 42.2698 148.443 44.221 149.436 46.4799C150.43 48.7046 150.925 51.2711 150.923 54.1793ZM126.657 19.3135C126.66 15.1394 125.547 12.0934 123.319 10.1757C121.124 8.25807 117.985 7.29769 113.902 7.29459L103.146 7.28644L103.128 31.2536L112.134 31.2605C113.987 31.2619 115.789 31.0408 117.539 30.5974C119.289 30.1197 120.834 29.4024 122.172 28.4454C123.546 27.4542 124.627 26.2062 125.418 24.7014C126.242 23.1965 126.655 21.4006 126.657 19.3135ZM130.234 52.8806C130.236 50.8619 129.98 48.9799 129.466 47.2346C128.953 45.4551 128.165 43.9319 127.102 42.6652C126.04 41.3642 124.702 40.3539 123.09 39.6342C121.513 38.8803 119.643 38.5025 117.481 38.5009L103.122 38.49L103.1 67.0248L115.658 67.0343C117.751 67.0359 119.69 66.6952 121.475 66.0123C123.259 65.3293 124.804 64.3725 126.109 63.1418C127.414 61.911 128.427 60.4235 129.149 58.6791C129.871 56.9347 130.233 55.0019 130.234 52.8806Z" fill="white"/>
<path d="M216.373 74.2957L163.157 74.2553L163.213 0.352226L216.43 0.392558L216.423 9.83573L183.638 9.81088L183.621 32.649L208.942 32.6682L208.935 42.06L183.614 42.0408L183.596 64.8276L216.381 64.8525L216.373 74.2957Z" fill="white"/>
<path d="M334.701 0.482194C333.772 3.25286 332.964 6.12625 332.275 9.10239C331.587 12.0443 331.018 15.0034 330.57 17.9797C330.122 20.9218 329.776 23.8298 329.534 26.7036C329.326 29.5775 329.221 32.2974 329.219 34.8635C329.217 36.7453 329.216 38.8666 329.214 41.2274C329.247 43.554 329.382 45.932 329.62 48.3614C329.893 50.7909 330.32 53.1691 330.902 55.4961C331.483 57.7889 332.339 59.8424 333.47 61.6566C334.635 63.4709 336.11 64.9261 337.893 66.0223C339.711 67.1186 341.958 67.6677 344.634 67.6697C347.001 67.6715 349.026 67.2796 350.708 66.4939C352.424 65.6741 353.866 64.5803 355.034 63.2126C356.236 61.845 357.18 60.2718 357.868 58.4932C358.59 56.7146 359.14 54.8503 359.519 52.9004C359.932 50.9505 360.191 48.9833 360.296 46.999C360.434 44.9804 360.504 43.0645 360.506 41.2511L360.537 0.501775L380.969 0.51726L380.941 38.0847C380.937 43.4563 380.075 48.451 378.356 53.0686C376.637 57.6863 374.215 61.7046 371.09 65.1237C367.965 68.5086 364.189 71.1744 359.761 73.1213C355.333 75.0339 350.426 75.9882 345.039 75.9841C341.334 75.9813 337.886 75.4484 334.696 74.3853C331.506 73.3565 328.573 71.9344 325.898 70.119C323.258 68.2694 320.892 66.095 318.801 63.5957C316.744 61.0623 315.013 58.3067 313.609 55.329C312.239 52.3513 311.195 49.2199 310.477 45.9348C309.758 42.6155 309.435 39.2622 309.506 35.875L309.507 34.8486C309.543 32.1115 309.82 29.289 310.337 26.3811C310.854 23.4391 311.542 20.4972 312.402 17.5554C313.297 14.6136 314.363 11.7062 315.6 8.83314C316.837 5.92585 318.212 3.13842 319.724 0.470843L334.701 0.482194Z" fill="white"/>
<path d="M431.093 74.4584L410.661 74.4429L410.71 9.98298L390.535 9.96769L390.542 0.524515L451.325 0.570581L451.317 10.0138L431.142 9.99846L431.093 74.4584Z" fill="white"/>
<path d="M521.988 0.624136L497.972 43.4595L497.949 74.5091L477.516 74.4936L477.539 44.5731L453.332 0.572102L474.176 0.5879L490.257 37.7569L507.578 0.613215L521.988 0.624136Z" fill="white"/>
<path d="M266.4 7.05214C264.685 6.22969 267.368 0.0457611 265 0.0439669C270.421 0.0480755 276.286 -0.360599 280.71 1.59298C285.101 3.51231 288.873 6.18389 292.027 9.60772C295.147 12.9973 297.563 17.0022 299.275 21.6225C300.987 26.2427 301.841 31.2387 301.836 36.6103L301.808 74.1777L281.376 74.1623L281.389 56.1997L259.207 56.1829L259.213 47.7148L281.396 47.7316L281.407 33.4129C281.408 31.6338 281.358 29.7519 281.256 27.7674C281.121 25.7487 280.865 23.764 280.489 21.8135C280.079 19.8288 279.531 17.9466 278.846 16.1669C278.127 14.3872 277.185 12.8297 276.019 11.4945C274.819 10.125 270.353 6.53036 266.4 7.05214Z" fill="white"/>
<path d="M266.4 7.05214C273.164 4.42823 267.599 0.0430276 267.599 0.0430276C262.178 0.038919 258.043 -0.390508 253.616 1.55636C249.223 3.46904 245.446 6.1349 242.287 9.55394C239.162 12.9388 236.74 16.94 235.021 21.5577C233.302 26.1753 232.44 31.17 232.436 36.5417L232.408 74.1091L252.84 74.1245L252.854 56.162L275.036 56.1788L275.042 47.7107L252.86 47.6939L252.871 33.3752C252.872 31.5961 252.925 29.7143 253.03 27.7299C253.169 25.7114 253.427 23.7271 253.806 21.7772C254.22 19.7931 254.77 17.9117 255.458 16.1331C256.179 14.3545 257.124 12.7984 258.292 11.465C259.494 10.0973 263.326 6.53036 266.4 7.05214Z" fill="white"/>
</g>
<path id="Vector_2" d="M20.4783 74.3025H3.15463e-05L3.15463e-05 0.0516498H20.4783V35.4239C26.8057 30.577 32.7033 25.1972 38.1711 19.2847C43.6732 13.3721 48.4016 6.94391 52.3562 8.53539e-05H66.3351C62.6899 6.22203 58.5118 12.0315 53.8006 17.4284C49.0894 22.8253 43.9655 27.827 38.429 32.4333L68.0889 74.3025H46.7338L24.3985 42.7459C23.7452 43.1928 23.0918 43.6225 22.4384 44.035C21.8194 44.4475 21.166 44.86 20.4783 45.2725V74.3025Z" fill="white"/>
<path id="Star 7" d="M61.0894 46.0071L58.3172 37.8256C58.1467 37.3222 57.7518 36.9267 57.2486 36.7554L49.0908 33.9773L57.3872 30.0836C57.8085 29.8859 58.1311 29.5249 58.2805 29.0841L61.0891 20.7942L64.0361 28.8099C64.1825 29.2082 64.4717 29.5378 64.8475 29.7347L72.6846 33.8418L65.0064 36.7461C64.5353 36.9243 64.1667 37.3011 63.9989 37.776L61.0894 46.0071Z" fill="#FFA0B7"/>
</g>
</svg>
