<svg width="134" height="55" viewBox="0 0 134 55" fill="none" xmlns="http://www.w3.org/2000/svg">
<path d="M0.479974 22.3999C0.202641 22.2293 0.0533077 22.0586 0.0319743 21.8879C0.0106409 21.7386 0.0639743 21.4399 0.191974 20.9919C0.170641 20.7146 0.181308 20.4586 0.223974 20.2239C0.287974 19.9893 0.330641 19.8293 0.351974 19.7439C0.458641 19.7439 0.522641 19.6799 0.543974 19.5519C0.565308 19.4239 0.575974 19.3173 0.575974 19.2319C0.575974 19.0613 0.639974 18.7733 0.767974 18.3679C0.917308 17.9626 1.04531 17.5466 1.15197 17.1199C1.32264 16.6933 1.48264 16.2986 1.63197 15.9359C1.80264 15.5519 1.88797 15.3173 1.88797 15.2319C1.88797 15.0613 1.93064 14.8906 2.01597 14.7199C2.10131 14.5279 2.19731 14.3466 2.30397 14.1759C2.41064 13.9199 2.48531 13.6426 2.52797 13.3439C2.59197 13.0239 2.62397 12.7786 2.62397 12.6079C2.75197 12.3306 2.89064 12.0319 3.03997 11.7119C3.18931 11.3919 3.30664 11.0613 3.39197 10.7199C3.51997 10.3573 3.70131 9.83461 3.93597 9.15194C4.19197 8.44794 4.45864 7.73327 4.73597 7.00794C4.92797 6.60261 5.11997 6.17594 5.31197 5.72794C5.50397 5.27994 5.67464 4.89594 5.82397 4.57594C5.97331 4.25594 6.07997 4.09594 6.14397 4.09594C6.14397 4.09594 6.14397 4.06394 6.14397 3.99994C6.14397 3.91461 6.14397 3.82927 6.14397 3.74394C6.14397 3.63728 6.22931 3.43461 6.39997 3.13594C6.57064 2.81594 6.73064 2.48527 6.87997 2.14394C7.09331 1.82394 7.24264 1.52528 7.32797 1.24794C7.41331 0.949275 7.45597 0.799942 7.45597 0.799942C7.45597 0.799942 7.48797 0.735942 7.55197 0.607941C7.63731 0.479941 7.72264 0.373274 7.80797 0.287941C8.08531 0.0959409 8.34131 0.0212746 8.57597 0.063942C8.83197 0.106608 9.04531 0.309275 9.21597 0.671942C9.38664 1.01327 9.46131 1.30127 9.43997 1.53594C9.41864 1.74928 9.32264 1.98394 9.15197 2.23994C8.98131 2.62394 8.75731 3.11461 8.47997 3.71194C8.20264 4.28794 7.90397 4.91727 7.58397 5.59994C7.28531 6.26127 6.99731 6.90127 6.71997 7.51994C6.46397 8.11728 6.25064 8.63994 6.07998 9.08794C5.93064 9.51461 5.85597 9.78128 5.85597 9.88794L4.54397 13.1199C4.54397 13.1626 4.50131 13.2693 4.41597 13.4399C4.35197 13.6106 4.25597 13.8666 4.12797 14.2079C4.02131 14.5493 3.88264 14.9973 3.71197 15.5519C3.54131 16.1066 3.33864 16.7786 3.10397 17.5679C2.67731 18.9333 2.34664 19.9999 2.11197 20.7679C1.87731 21.5146 1.68531 22.0266 1.53597 22.3039C1.40797 22.6026 1.26931 22.7519 1.11997 22.7519C1.03464 22.7519 0.938641 22.7093 0.831975 22.6239C0.746641 22.5599 0.629308 22.4853 0.479974 22.3999ZM11.776 22.6559C11.584 22.6773 11.3173 22.5813 10.976 22.3679C10.656 22.1759 10.304 21.9306 9.91998 21.6319C9.55731 21.3333 9.20531 21.0239 8.86397 20.7039C8.54397 20.3839 8.28797 20.1066 8.09597 19.8719C7.75464 19.3813 7.32797 18.7413 6.81597 17.9519C6.30397 17.1413 5.91997 16.2773 5.66397 15.3599C5.51464 14.6773 5.36531 14.1439 5.21597 13.7599C5.06664 13.3546 4.97064 13.0239 4.92797 12.7679L4.95997 10.5279L6.59197 11.0399C6.69864 12.1919 6.85864 13.1519 7.07197 13.9199C7.30664 14.6666 7.58397 15.3279 7.90397 15.9039C8.15997 16.4586 8.44797 17.0133 8.76797 17.5679C9.08797 18.1013 9.42931 18.5493 9.79198 18.9119C10.2826 19.4453 10.72 19.8399 11.104 20.0959C11.488 20.3519 11.776 20.4799 11.968 20.4799C12.0746 20.5013 12.224 20.5759 12.416 20.7039C12.6293 20.8319 12.8213 20.9706 12.992 21.1199C13.184 21.2479 13.2906 21.3759 13.312 21.5039C13.3333 21.5679 13.344 21.6639 13.344 21.7919C13.344 21.9413 13.3226 22.0693 13.28 22.1759C13.2586 22.3039 13.2266 22.3999 13.184 22.4639C13.12 22.6133 13.0026 22.7413 12.832 22.8479C12.6826 22.9759 12.3306 22.9119 11.776 22.6559ZM4.60797 10.7839L6.94397 9.08794C7.00797 9.02394 7.23197 8.81061 7.61597 8.44794C8.02131 8.08528 8.68264 7.56261 9.59997 6.87994L13.536 3.67994C14.0693 3.40261 14.6133 3.05061 15.168 2.62394C15.744 2.19728 16.1813 1.88794 16.48 1.69594C16.8426 1.43994 17.1626 1.21594 17.44 1.02394C17.7173 0.831941 17.8986 0.746607 17.984 0.767941C18.1546 0.682608 18.3253 0.714609 18.496 0.863941C18.688 0.991941 18.8373 1.17327 18.944 1.40794C19.072 1.62127 19.1253 1.81328 19.104 1.98394C19.1466 2.19728 19.104 2.37861 18.976 2.52794C18.848 2.67727 18.5386 2.89061 18.048 3.16794C17.6426 3.35994 17.28 3.55194 16.96 3.74394C16.6613 3.93594 16.48 4.09594 16.416 4.22394C16.416 4.22394 16.2133 4.38394 15.808 4.70394C15.424 5.00261 14.9226 5.36527 14.304 5.79194C13.4506 6.34661 12.7146 6.86927 12.096 7.35994C11.4986 7.85061 11.1146 8.22394 10.944 8.47994C10.8586 8.47994 10.7733 8.51194 10.688 8.57594C10.624 8.63994 10.5493 8.66128 10.464 8.63994C10.464 8.63994 10.3786 8.69328 10.208 8.79994C10.0586 8.90661 9.94131 9.01328 9.85598 9.11994C9.81331 9.22661 9.71731 9.37594 9.56798 9.56794C9.43997 9.75994 9.26931 9.84528 9.05597 9.82394C8.90664 9.90928 8.63997 10.0906 8.25597 10.3679C7.87197 10.6239 7.46664 10.9119 7.03998 11.2319C6.63464 11.5519 6.28264 11.8399 5.98397 12.0959C5.68531 12.3519 5.52531 12.5013 5.50397 12.5439L4.60797 10.7839ZM19.1375 20.6719C18.7108 20.6293 18.4441 20.5759 18.3375 20.5119C18.2521 20.4479 18.1455 20.2773 18.0175 19.9999C17.8468 19.8079 17.7401 19.6586 17.6975 19.5519C17.6761 19.4453 17.6761 19.3493 17.6975 19.2639C17.8041 19.2639 17.9001 19.2639 17.9855 19.2639C18.0708 19.2426 18.1241 19.1999 18.1455 19.1359C18.1455 19.0719 18.1775 19.0293 18.2415 19.0079C18.3268 18.9866 18.4121 18.9866 18.4975 19.0079C18.9028 19.0293 19.4148 18.9013 20.0335 18.6239C20.6735 18.3253 21.3561 17.9199 22.0815 17.4079C22.8281 16.8746 23.5535 16.2879 24.2575 15.6479C24.8121 14.9226 25.2175 14.3573 25.4735 13.9519C25.7295 13.5253 25.8788 13.1839 25.9215 12.9279C25.9641 12.6506 25.9321 12.4159 25.8255 12.2239C25.7401 12.0533 25.4308 11.9893 24.8975 12.0319C24.3641 12.0533 23.7668 12.2773 23.1055 12.7039C22.1881 13.2799 21.4521 13.8133 20.8975 14.3039C20.3428 14.7946 19.8308 15.3493 19.3615 15.9679C19.1908 16.1813 19.0201 16.4373 18.8495 16.7359C18.7001 17.0346 18.5721 17.2906 18.4655 17.5039C18.3588 17.7173 18.3055 17.8239 18.3055 17.8239C18.3055 17.9093 18.1775 18.0159 17.9215 18.1439C17.6868 18.2719 17.4841 18.3359 17.3135 18.3359C17.2281 18.2933 17.1108 18.2186 16.9615 18.1119C16.8335 17.9839 16.7481 17.8239 16.7055 17.6319C16.5561 17.5253 16.4495 17.4399 16.3855 17.3759C16.3215 17.3119 16.2788 17.2373 16.2575 17.1519C16.2361 17.0239 16.2681 16.8213 16.3535 16.5439C16.4388 16.2666 16.5561 15.8293 16.7055 15.2319C16.8335 14.6773 16.9721 14.1013 17.1215 13.5039C17.2921 12.9066 17.4521 12.3946 17.6015 11.9679C17.7508 11.5413 17.8575 11.3066 17.9215 11.2639C17.9215 11.2639 17.9641 11.1679 18.0495 10.9759C18.1348 10.7839 18.1775 10.5599 18.1775 10.3039C18.2201 10.0479 18.2841 9.82394 18.3695 9.63194C18.4761 9.43994 18.5295 9.30127 18.5295 9.21594C18.6148 9.15194 18.7428 8.89594 18.9135 8.44794C19.0841 7.99994 19.2975 7.41328 19.5535 6.68794C19.5535 6.62394 19.6281 6.42128 19.7775 6.07994C19.9268 5.71728 20.1081 5.30128 20.3215 4.83194C20.5348 4.34127 20.7481 3.83994 20.9615 3.32794C21.1961 2.79461 21.3881 2.32527 21.5375 1.91994C21.7935 1.55728 21.9855 1.22661 22.1135 0.927942C22.2628 0.607941 22.4121 0.415941 22.5615 0.351942C22.6681 0.330608 22.7961 0.341274 22.9455 0.383942C23.1161 0.405275 23.2761 0.458608 23.4255 0.543941C23.5961 0.629275 23.7348 0.757275 23.8415 0.927942C23.9055 1.03461 23.9481 1.13061 23.9695 1.21594C23.9908 1.30127 23.9588 1.46127 23.8735 1.69594C23.7881 1.90928 23.6175 2.28261 23.3615 2.81594C23.1268 3.32794 22.7748 4.07461 22.3055 5.05594C21.7081 6.33594 21.2175 7.47727 20.8335 8.47994C20.4495 9.48261 20.1295 10.3679 19.8735 11.1359C19.6175 11.9039 19.3828 12.5653 19.1695 13.1199L19.0095 13.8239L19.8095 13.0559C20.1295 12.8213 20.4815 12.5333 20.8655 12.1919C21.2495 11.8506 21.5908 11.5519 21.8895 11.2959C22.0601 11.1679 22.2841 11.0399 22.5615 10.9119C22.8601 10.7626 23.1481 10.6346 23.4255 10.5279C23.7028 10.4213 23.9055 10.3573 24.0335 10.3359C24.0975 10.3146 24.2575 10.2826 24.5135 10.2399C24.7695 10.1973 25.0788 10.1759 25.4415 10.1759C25.9108 10.1759 26.2841 10.2826 26.5615 10.4959C26.8601 10.7093 27.1481 11.0506 27.4255 11.5199C27.6601 11.9679 27.7561 12.4799 27.7135 13.0559C27.6708 13.6106 27.5001 14.1333 27.2015 14.6239C27.0948 14.7093 26.9881 14.8266 26.8815 14.9759C26.7748 15.1039 26.7215 15.2106 26.7215 15.2959C26.7001 15.4453 26.5081 15.7546 26.1455 16.2239C25.7828 16.6719 25.4201 17.0986 25.0575 17.5039C24.6735 17.9093 24.2041 18.3146 23.6495 18.7199C23.0948 19.1039 22.5401 19.4559 21.9855 19.7759C21.4521 20.0746 20.9935 20.2879 20.6095 20.4159C20.4388 20.4373 20.1935 20.4799 19.8735 20.5439C19.5535 20.5866 19.3081 20.6293 19.1375 20.6719ZM34.1637 20.0959C33.7157 20.4799 33.1931 20.7039 32.5957 20.7679C32.0197 20.8319 31.4544 20.7466 30.8997 20.5119C30.3451 20.2559 29.8864 19.8719 29.5237 19.3599C29.1611 18.8906 28.9264 18.3573 28.8197 17.7599C28.7131 17.1413 28.7024 16.3413 28.7877 15.3599C28.8517 14.5279 29.1184 13.6959 29.5877 12.8639C30.0571 12.0106 30.6224 11.2533 31.2837 10.5919C31.9664 9.93061 32.6384 9.47194 33.2997 9.21594C33.6197 9.00261 33.8864 8.90661 34.0997 8.92794C34.3344 8.92794 34.6864 8.94928 35.1557 8.99194C35.6464 9.05594 36.0091 9.15194 36.2437 9.27994C36.4997 9.40794 36.7024 9.57861 36.8517 9.79194C37.1717 10.1119 37.3851 10.4319 37.4917 10.7519C37.5984 11.0506 37.6517 11.3493 37.6517 11.6479C37.5664 12.1173 37.2464 12.6933 36.6917 13.3759C36.1584 14.0373 35.4544 14.5813 34.5797 15.0079C34.1104 15.1573 33.5984 15.2213 33.0437 15.1999C32.4891 15.1786 32.0304 15.0399 31.6677 14.7839C31.2624 14.6133 30.9957 14.6453 30.8677 14.8799C30.7397 15.0933 30.6224 15.6266 30.5157 16.4799C30.4304 17.2906 30.4944 17.8879 30.7077 18.2719C30.9211 18.6346 31.2091 18.8479 31.5717 18.9119C31.9984 18.9973 32.3291 19.0613 32.5637 19.1039C32.8197 19.1253 33.1291 19.0293 33.4917 18.8159C33.8331 18.6026 34.0464 18.4853 34.1317 18.4639C34.2171 18.4213 34.2811 18.3786 34.3237 18.3359C34.3877 18.2719 34.5264 18.1333 34.7397 17.9199C34.8891 17.7706 35.0064 17.6639 35.0917 17.5999C35.1771 17.5146 35.2731 17.4719 35.3797 17.4719C35.4864 17.4719 35.5824 17.5253 35.6677 17.6319C35.7531 17.7173 35.8384 17.7813 35.9237 17.8239C36.1371 17.8239 36.1797 17.9519 36.0517 18.2079C35.9451 18.4639 35.7211 18.7733 35.3797 19.1359C35.0384 19.4773 34.6331 19.7973 34.1637 20.0959ZM34.1317 13.3119C34.3664 13.2053 34.6117 13.0559 34.8677 12.8639C35.1237 12.6506 35.3371 12.4266 35.5077 12.1919C35.6997 11.9359 35.7957 11.7226 35.7957 11.5519C35.7957 11.2533 35.6571 11.0079 35.3797 10.8159C35.1024 10.6026 34.6864 10.5706 34.1317 10.7199C33.8971 10.7839 33.6304 10.9439 33.3317 11.1999C33.0331 11.4346 32.7451 11.7013 32.4677 11.9999C32.2117 12.2986 31.9984 12.5653 31.8277 12.7999C31.6784 13.0346 31.6251 13.1733 31.6677 13.2159C31.7317 13.3226 31.9131 13.4079 32.2117 13.4719C32.5104 13.5146 32.8411 13.5253 33.2037 13.5039C33.5877 13.4826 33.8971 13.4186 34.1317 13.3119ZM40.698 20.2879C40.5273 20.3306 40.3033 20.3519 40.026 20.3519C39.7486 20.3306 39.5033 20.2986 39.29 20.2559C39.098 20.1919 39.002 20.1279 39.002 20.0639C39.002 19.9573 38.9486 19.9039 38.842 19.9039C38.842 19.9039 38.7886 19.8613 38.682 19.7759C38.5966 19.6906 38.458 19.6053 38.266 19.5199C38.074 19.2213 37.978 18.9013 37.978 18.5599C37.978 18.1973 38.074 17.6319 38.266 16.8639C38.33 16.3306 38.5326 15.7119 38.874 15.0079C39.2366 14.2826 39.674 13.5466 40.186 12.7999C40.698 12.0533 41.2313 11.3813 41.786 10.7839C42.362 10.1866 42.8846 9.74928 43.354 9.47194C43.6526 9.17328 44.0153 9.01328 44.442 8.99194C44.8686 8.97061 45.274 9.06661 45.658 9.27994C45.8713 9.38661 46.0846 9.55727 46.298 9.79194C46.5113 10.0266 46.714 10.2826 46.906 10.5599C47.098 10.8373 47.258 11.1146 47.386 11.3919C47.45 11.6266 47.482 11.8399 47.482 12.0319C47.5033 12.2026 47.5033 12.4159 47.482 12.6719C47.482 12.9279 47.45 13.3119 47.386 13.8239C47.2793 14.2079 47.1833 14.6773 47.098 15.2319C47.034 15.7866 47.002 16.2666 47.002 16.6719C46.9593 17.0773 47.002 17.3653 47.13 17.5359C47.2793 17.7066 47.4926 17.7173 47.77 17.5679C48.026 17.4399 48.2713 17.3866 48.506 17.4079C48.7406 17.4079 48.922 17.4719 49.05 17.5999C49.1993 17.7279 49.274 17.9199 49.274 18.1759C49.274 18.4319 49.146 18.6986 48.89 18.9759C48.6553 19.2319 48.3566 19.4559 47.994 19.6479C47.6526 19.8186 47.322 19.9039 47.002 19.9039C46.7673 19.9039 46.5433 19.7653 46.33 19.4879C46.1166 19.1893 45.9246 18.8373 45.754 18.4319C45.6046 18.0053 45.466 17.5999 45.338 17.2159L45.146 16.4799L43.77 17.7919C43.4926 18.0906 43.2153 18.3679 42.938 18.6239C42.682 18.8586 42.522 19.0293 42.458 19.1359C42.3513 19.3279 42.1486 19.5199 41.85 19.7119C41.5726 19.9039 41.1886 20.0959 40.698 20.2879ZM40.794 18.3999C41.1566 18.1866 41.5726 17.8773 42.042 17.4719C42.5113 17.0453 42.97 16.5866 43.418 16.0959C43.866 15.5839 44.2393 15.1146 44.538 14.6879C44.9006 14.1973 45.178 13.7386 45.37 13.3119C45.562 12.8853 45.7006 12.4799 45.786 12.0959C45.7006 11.8613 45.562 11.6159 45.37 11.3599C45.178 11.0826 45.0073 10.9333 44.858 10.9119C44.3886 10.9119 43.8873 11.2106 43.354 11.8079C42.842 12.3839 42.3406 13.0133 41.85 13.6959C41.7646 13.8026 41.6473 13.9733 41.498 14.2079C41.3486 14.4426 41.1993 14.6666 41.05 14.8799C40.922 15.0719 40.8366 15.1999 40.794 15.2639C40.73 15.3493 40.602 15.5946 40.41 15.9999C40.2393 16.3839 40.0686 16.7786 39.898 17.1839C39.7273 17.5679 39.642 17.8239 39.642 17.9519C39.642 18.0799 39.6526 18.2186 39.674 18.3679C39.7166 18.5173 39.8233 18.6133 39.994 18.6559C40.1646 18.6986 40.4313 18.6133 40.794 18.3999ZM52.1017 19.5839C51.6964 19.2213 51.3871 18.8479 51.1737 18.4639C50.9817 18.0799 50.8324 17.4719 50.7257 16.6399C50.6831 16.2559 50.7257 15.7546 50.8537 15.1359C50.9817 14.4959 51.1631 13.8239 51.3977 13.1199C51.6324 12.4159 51.8991 11.7759 52.1977 11.1999C52.4964 10.6026 52.7951 10.1546 53.0937 9.85594C53.3497 9.53594 53.5524 9.36528 53.7017 9.34394C53.8724 9.30127 54.1711 9.37594 54.5977 9.56794C54.8324 9.84528 54.9497 10.1439 54.9497 10.4639C54.9497 10.7839 54.8217 11.1466 54.5657 11.5519C54.1391 12.1279 53.7657 12.8533 53.4457 13.7279C53.1471 14.5813 52.9444 15.3493 52.8377 16.0319C52.6244 16.7573 52.5284 17.2479 52.5497 17.5039C52.5711 17.7599 52.7631 17.9306 53.1257 18.0159C53.5311 18.1013 54.0111 17.9519 54.5657 17.5679C55.1204 17.1626 55.6644 16.6079 56.1977 15.9039C56.7311 15.1786 57.1577 14.3893 57.4777 13.5359C57.6057 13.2373 57.7017 12.8853 57.7657 12.4799C57.8511 12.0746 57.9364 11.7759 58.0217 11.5839C58.1284 11.1573 58.2777 10.8479 58.4697 10.6559C58.6617 10.4426 58.8644 10.3253 59.0777 10.3039C59.2911 10.2613 59.4724 10.3039 59.6217 10.4319C59.8137 10.5173 59.9311 10.6239 59.9737 10.7519C60.0164 10.8586 60.0164 11.1573 59.9737 11.6479C59.9737 12.4373 59.8031 13.1093 59.4617 13.6639C59.1204 14.2186 58.8324 14.8053 58.5977 15.4239C58.4057 15.8719 58.1177 16.3733 57.7337 16.9279C57.3711 17.4826 56.9657 17.9839 56.5177 18.4319C56.0911 18.8799 55.6751 19.1893 55.2697 19.3599C54.6724 19.7439 54.1391 19.9359 53.6697 19.9359C53.2217 19.9146 52.6991 19.7973 52.1017 19.5839ZM64.7455 21.1519C64.4468 21.0666 64.2015 20.9706 64.0095 20.8639C63.8175 20.7359 63.5615 20.5333 63.2415 20.2559C62.9855 19.9146 62.7828 19.5946 62.6335 19.2959C62.5055 18.9973 62.4201 18.6559 62.3775 18.2719C62.3348 17.8666 62.3135 17.3546 62.3135 16.7359C62.3135 16.4799 62.3561 16.0959 62.4415 15.5839C62.5481 15.0719 62.6655 14.5386 62.7935 13.9839C62.9428 13.4079 63.0708 12.8959 63.1775 12.4479C63.3055 11.9999 63.3801 11.7119 63.4015 11.5839C63.4655 11.3066 63.3588 11.1466 63.0815 11.1039C62.8041 11.0613 62.4948 11.0506 62.1535 11.0719C61.8335 11.0719 61.6201 11.0399 61.5135 10.9759C61.4281 10.9546 61.3855 10.9226 61.3855 10.8799C61.3855 10.8159 61.3855 10.7839 61.3855 10.7839C61.3855 10.6986 61.3748 10.6453 61.3535 10.6239C61.3535 10.5813 61.3215 10.5066 61.2575 10.3999C61.2148 10.3146 61.2361 10.1973 61.3215 10.0479C61.4281 9.87728 61.5988 9.77061 61.8335 9.72794C62.0255 9.68527 62.2815 9.65327 62.6015 9.63194C62.9428 9.58928 63.2841 9.51461 63.6255 9.40794C63.9668 9.27994 64.2441 9.08794 64.4575 8.83194C64.6495 8.36261 64.8735 7.83994 65.1295 7.26394C65.3855 6.68794 65.6308 6.17594 65.8655 5.72794C66.1215 5.25861 66.2921 4.97061 66.3775 4.86394C66.7401 4.67194 67.0068 4.59727 67.1775 4.63994C67.3481 4.66128 67.5401 4.84261 67.7535 5.18394C67.8601 5.33327 67.9348 5.45061 67.9775 5.53594C68.0415 5.62127 68.0521 5.74927 68.0095 5.91994C67.9668 6.09061 67.8495 6.35728 67.6575 6.71994C67.4868 7.08261 67.2201 7.60528 66.8575 8.28794C66.7508 8.50128 66.6548 8.69328 66.5695 8.86394C66.4841 9.01328 66.4415 9.08794 66.4415 9.08794C66.5268 9.10928 66.6548 9.11994 66.8255 9.11994C66.9961 9.11994 67.2095 9.10928 67.4655 9.08794C67.7001 9.04528 67.9988 9.01328 68.3615 8.99194C68.7241 8.94928 69.0121 8.94928 69.2255 8.99194C69.7161 8.99194 70.0788 9.08794 70.3135 9.27994C70.5481 9.45061 70.6761 9.74928 70.6975 10.1759C70.7401 10.4106 70.6868 10.5493 70.5375 10.5919C70.4095 10.6346 70.0575 10.6559 69.4815 10.6559C69.2895 10.6559 68.9908 10.6666 68.5855 10.6879C68.1801 10.7093 67.7535 10.7306 67.3055 10.7519C66.8788 10.7733 66.5055 10.8053 66.1855 10.8479C65.8868 10.8693 65.7375 10.9013 65.7375 10.9439C65.6735 10.9866 65.5668 11.1893 65.4175 11.5519C65.2895 11.9146 65.1508 12.3306 65.0015 12.7999C64.8735 13.2479 64.7561 13.6533 64.6495 14.0159C64.5001 14.7413 64.3828 15.4666 64.2975 16.1919C64.2335 16.9173 64.2228 17.5466 64.2655 18.0799C64.3081 18.6133 64.4255 18.9866 64.6175 19.1999C64.8095 19.3919 65.1828 19.4346 65.7375 19.3279C66.2921 19.1999 66.7401 18.9973 67.0815 18.7199C67.4655 18.3999 67.7748 18.2399 68.0095 18.2399C68.2655 18.2399 68.4041 18.3573 68.4255 18.5919C68.4681 18.8053 68.3508 19.1146 68.0735 19.5199C67.8175 19.9039 67.4975 20.2453 67.1135 20.5439C66.7295 20.8213 66.3241 21.0239 65.8975 21.1519C65.4921 21.2586 65.1081 21.2586 64.7455 21.1519ZM72.6192 28.5759C72.5979 28.6186 72.5019 28.5759 72.3312 28.4479C72.1819 28.3199 72.0326 28.1599 71.8832 27.9679C71.7339 27.7973 71.6699 27.6479 71.6912 27.5199C71.6059 27.2213 71.6166 26.8479 71.7232 26.3999C71.8512 25.9733 72.1179 25.3333 72.5232 24.4799C72.7366 24.1386 72.9286 23.7333 73.0992 23.2639C73.2912 22.7946 73.5046 22.3253 73.7392 21.8559C73.8459 21.6639 74.0806 21.2479 74.4432 20.6079C74.8059 19.9679 75.1899 19.2426 75.5952 18.4319C76.0219 17.6213 76.3739 16.8533 76.6512 16.1279C76.0966 16.7039 75.5846 17.2906 75.1152 17.8879C74.6459 18.4639 74.2086 18.9333 73.8032 19.2959C73.4192 19.6586 73.0566 19.8293 72.7152 19.8079C72.4379 19.7439 72.1392 19.6479 71.8192 19.5199C71.5206 19.3706 71.3179 19.1146 71.2112 18.7519C71.1259 18.2826 71.0939 17.6853 71.1152 16.9599C71.1579 16.2346 71.2966 15.1359 71.5312 13.6639C71.7019 12.9386 71.7979 12.3839 71.8192 11.9999C71.8619 11.5946 71.8512 11.2959 71.7872 11.1039C71.7232 10.9119 71.6059 10.7413 71.4352 10.5919C71.1579 10.3359 71.0086 10.1119 70.9872 9.91994C70.9872 9.70661 71.1366 9.52528 71.4352 9.37594C71.8832 9.26928 72.2032 9.23727 72.3952 9.27994C72.5872 9.30128 72.8219 9.47194 73.0992 9.79194C73.2699 10.0693 73.4192 10.3359 73.5472 10.5919C73.6966 10.8266 73.7712 11.2426 73.7712 11.8399C73.7712 12.0959 73.7286 12.4373 73.6432 12.8639C73.5792 13.2906 73.5152 13.6959 73.4512 14.0799C73.4086 14.4426 73.3766 14.6986 73.3552 14.8479C73.1419 15.6373 73.0032 16.3199 72.9392 16.8959C72.8966 17.4719 72.9286 17.7599 73.0352 17.7599C73.4619 17.4186 73.8672 17.0346 74.2512 16.6079C74.6566 16.1599 75.0726 15.6586 75.4992 15.1039C75.9472 14.5279 76.4379 13.8773 76.9712 13.1519C77.1632 12.7893 77.3552 12.4373 77.5472 12.0959C77.7392 11.7546 77.8992 11.4026 78.0272 11.0399C78.1552 10.7626 78.2832 10.5386 78.4112 10.3679C78.5392 10.1973 78.6459 10.1013 78.7312 10.0799C78.8379 10.0373 78.9659 10.0479 79.1152 10.1119C79.2859 10.1759 79.4352 10.2506 79.5632 10.3359C79.7126 10.3999 79.7872 10.4533 79.7872 10.4959C79.8086 10.5173 79.8619 10.5386 79.9472 10.5599C80.0326 10.5813 80.1179 10.6026 80.2032 10.6239C80.3099 10.6239 80.3632 10.6559 80.3632 10.7199C80.3632 10.7626 80.3099 10.9013 80.2032 11.1359C80.1179 11.3706 80.0112 11.6373 79.8832 11.9359C79.7766 12.2133 79.6806 12.4693 79.5952 12.7039C79.5099 12.9173 79.4779 13.0453 79.4992 13.0879C79.5419 13.1306 79.5099 13.2906 79.4032 13.5679C79.2966 13.8239 79.1686 14.1119 79.0192 14.4319C78.8912 14.7519 78.7739 15.0399 78.6672 15.2959C78.4539 15.9999 78.2086 16.7039 77.9312 17.4079C77.6539 18.0906 77.3232 18.7733 76.9392 19.4559C76.8112 19.7119 76.6192 20.1066 76.3632 20.6399C76.1286 21.1733 75.8939 21.6959 75.6592 22.2079C75.4459 22.7413 75.2752 23.1466 75.1472 23.4239C75.0619 23.5946 74.9339 23.8613 74.7632 24.2239C74.6139 24.6079 74.4432 25.0239 74.2512 25.4719C74.0806 25.9199 73.9099 26.3359 73.7392 26.7199C73.5686 27.1253 73.4406 27.4346 73.3552 27.6479C73.3126 28.0533 73.2166 28.3519 73.0672 28.5439C72.9819 28.5439 72.8859 28.5439 72.7792 28.5439C72.6726 28.5653 72.6192 28.5759 72.6192 28.5759ZM85.8355 27.4239C85.3661 27.8933 84.7581 28.1173 84.0115 28.0959C83.2861 28.0959 82.6675 27.8293 82.1555 27.2959C81.8995 26.8906 81.7075 26.4533 81.5795 25.9839C81.4301 25.5146 81.3661 25.0986 81.3875 24.7359C81.3875 24.3946 81.4941 24.2239 81.7075 24.2239C81.8141 24.2239 81.9101 24.2559 81.9955 24.3199C82.0808 24.3839 82.1555 24.4693 82.2195 24.5759C82.2835 24.7039 82.3155 24.8533 82.3155 25.0239C82.3155 25.3439 82.3901 25.6319 82.5395 25.8879C82.6888 26.1439 82.9021 26.2719 83.1795 26.2719C83.4141 26.3573 83.7235 26.2933 84.1075 26.0799C84.5128 25.8666 84.8328 25.5679 85.0675 25.1839C85.2808 24.9066 85.5368 24.4693 85.8355 23.8719C86.1555 23.2746 86.4648 22.6453 86.7635 21.9839C87.0835 21.3439 87.3181 20.8213 87.4675 20.4159C87.7235 19.5413 87.9475 18.6453 88.1395 17.7279C88.3528 16.8106 88.5661 15.8293 88.7795 14.7839C88.8648 14.2079 88.9608 13.7173 89.0675 13.3119C89.1955 12.8853 89.2595 12.6293 89.2595 12.5439C89.2595 12.4586 89.2701 12.2879 89.2915 12.0319C89.3128 11.7546 89.3768 11.5093 89.4835 11.2959C89.4835 10.9759 89.5048 10.6986 89.5475 10.4639C89.6115 10.2079 89.6435 10.0373 89.6435 9.95194C89.7075 9.88794 89.7928 9.86661 89.8995 9.88794C90.0275 9.90928 90.1555 9.95194 90.2835 10.0159C90.4328 10.0799 90.5608 10.1653 90.6675 10.2719C90.8381 10.4426 90.9448 10.6133 90.9875 10.7839C91.0515 10.9546 91.0621 11.2213 91.0195 11.5839C90.9981 11.9466 90.9341 12.5226 90.8275 13.3119C90.8275 13.4399 90.7955 13.7066 90.7315 14.1119C90.6675 14.4959 90.5821 14.9333 90.4755 15.4239C90.3688 15.9146 90.2621 16.3946 90.1555 16.8639C90.0488 17.3119 89.9635 17.6853 89.8995 17.9839C89.8141 18.3039 89.7181 18.6559 89.6115 19.0399C89.5048 19.4239 89.4408 19.6906 89.4195 19.8399C89.3981 19.9679 89.3235 20.2239 89.1955 20.6079C89.0675 20.9706 88.9288 21.3333 88.7795 21.6959C88.6515 22.0586 88.5768 22.3146 88.5555 22.4639C88.5341 22.5493 88.4701 22.7519 88.3635 23.0719C88.2781 23.3919 88.0861 23.8826 87.7875 24.5439C87.6808 24.7999 87.4995 25.1306 87.2435 25.5359C87.0088 25.9413 86.7635 26.3146 86.5075 26.6559C86.2515 27.0186 86.0275 27.2746 85.8355 27.4239ZM90.8915 5.69594C90.6568 5.41861 90.5715 5.05594 90.6355 4.60794C90.7208 4.15994 90.9341 3.71194 91.2755 3.26394C91.5528 2.94394 91.8515 2.76261 92.1715 2.71994C92.4915 2.67727 92.7901 2.77327 93.0675 3.00794C93.3021 3.37061 93.4195 3.66927 93.4195 3.90394C93.4195 4.11728 93.3021 4.39461 93.0675 4.73594C92.5341 5.33327 92.1075 5.70661 91.7875 5.85594C91.4675 5.98394 91.1688 5.93061 90.8915 5.69594ZM98.3187 20.0959C97.8707 20.4799 97.3481 20.7039 96.7507 20.7679C96.1747 20.8319 95.6094 20.7466 95.0547 20.5119C94.5001 20.2559 94.0414 19.8719 93.6787 19.3599C93.3161 18.8906 93.0814 18.3573 92.9747 17.7599C92.8681 17.1413 92.8574 16.3413 92.9427 15.3599C93.0067 14.5279 93.2734 13.6959 93.7427 12.8639C94.2121 12.0106 94.7774 11.2533 95.4387 10.5919C96.1214 9.93061 96.7934 9.47194 97.4547 9.21594C97.7747 9.00261 98.0414 8.90661 98.2547 8.92794C98.4894 8.92794 98.8414 8.94928 99.3107 8.99194C99.8014 9.05594 100.164 9.15194 100.399 9.27994C100.655 9.40794 100.857 9.57861 101.007 9.79194C101.327 10.1119 101.54 10.4319 101.647 10.7519C101.753 11.0506 101.807 11.3493 101.807 11.6479C101.721 12.1173 101.401 12.6933 100.847 13.3759C100.313 14.0373 99.6094 14.5813 98.7347 15.0079C98.2654 15.1573 97.7534 15.2213 97.1987 15.1999C96.6441 15.1786 96.1854 15.0399 95.8227 14.7839C95.4174 14.6133 95.1507 14.6453 95.0227 14.8799C94.8947 15.0933 94.7774 15.6266 94.6707 16.4799C94.5854 17.2906 94.6494 17.8879 94.8627 18.2719C95.0761 18.6346 95.3641 18.8479 95.7267 18.9119C96.1534 18.9973 96.4841 19.0613 96.7187 19.1039C96.9747 19.1253 97.2841 19.0293 97.6467 18.8159C97.9881 18.6026 98.2014 18.4853 98.2867 18.4639C98.3721 18.4213 98.4361 18.3786 98.4787 18.3359C98.5427 18.2719 98.6814 18.1333 98.8947 17.9199C99.0441 17.7706 99.1614 17.6639 99.2467 17.5999C99.3321 17.5146 99.4281 17.4719 99.5347 17.4719C99.6414 17.4719 99.7374 17.5253 99.8227 17.6319C99.9081 17.7173 99.9934 17.7813 100.079 17.8239C100.292 17.8239 100.335 17.9519 100.207 18.2079C100.1 18.4639 99.8761 18.7733 99.5347 19.1359C99.1934 19.4773 98.7881 19.7973 98.3187 20.0959ZM98.2867 13.3119C98.5214 13.2053 98.7667 13.0559 99.0227 12.8639C99.2787 12.6506 99.4921 12.4266 99.6627 12.1919C99.8547 11.9359 99.9507 11.7226 99.9507 11.5519C99.9507 11.2533 99.8121 11.0079 99.5347 10.8159C99.2574 10.6026 98.8414 10.5706 98.2867 10.7199C98.0521 10.7839 97.7854 10.9439 97.4867 11.1999C97.1881 11.4346 96.9001 11.7013 96.6227 11.9999C96.3667 12.2986 96.1534 12.5653 95.9827 12.7999C95.8334 13.0346 95.7801 13.1733 95.8227 13.2159C95.8867 13.3226 96.0681 13.4079 96.3667 13.4719C96.6654 13.5146 96.9961 13.5253 97.3587 13.5039C97.7427 13.4826 98.0521 13.4186 98.2867 13.3119ZM118.843 20.8319C118.63 20.8319 118.406 20.7146 118.171 20.4799C117.958 20.2453 117.766 19.9573 117.595 19.6159C117.446 19.2533 117.371 18.9119 117.371 18.5919C117.371 18.2719 117.446 17.6746 117.595 16.7999C117.766 15.9253 117.968 15.0399 118.203 14.1439C118.374 13.5893 118.427 13.2693 118.363 13.1839C118.299 13.0986 118.011 13.2159 117.499 13.5359C117.2 13.6853 116.934 13.8453 116.699 14.0159C116.464 14.1653 116.262 14.3359 116.091 14.5279C115.984 14.6133 115.824 14.7519 115.611 14.9439C115.398 15.1359 115.174 15.3173 114.939 15.4879C114.662 15.7013 114.31 15.9999 113.883 16.3839C113.456 16.7679 113.03 17.1519 112.603 17.5359C112.198 17.9199 111.888 18.2186 111.675 18.4319C111.632 18.5173 111.568 18.5919 111.483 18.6559C111.398 18.7199 111.302 18.7626 111.195 18.7839C111.088 18.7839 110.971 18.7626 110.843 18.7199C110.608 18.6559 110.384 18.5173 110.171 18.3039C109.979 18.0906 109.883 17.8453 109.883 17.5679C109.883 17.3546 109.968 16.9919 110.139 16.4799C110.31 15.9466 110.534 15.3066 110.811 14.5599C111.11 13.8133 111.451 13.0239 111.835 12.1919C111.899 12.0853 111.952 11.9573 111.995 11.8079C112.038 11.6373 112.07 11.4559 112.091 11.2639C112.134 11.0719 112.155 10.8906 112.155 10.7199C112.155 10.6133 112.166 10.5066 112.187 10.3999C112.23 10.2719 112.272 10.1546 112.315 10.0479C112.379 9.91994 112.432 9.83461 112.475 9.79194C112.56 9.62128 112.71 9.57861 112.923 9.66394C113.136 9.72794 113.318 9.87728 113.467 10.1119C113.787 10.4106 113.947 10.7839 113.947 11.2319C113.968 11.6799 113.862 12.2346 113.627 12.8959C113.542 13.0453 113.467 13.1946 113.403 13.3439C113.36 13.4719 113.318 13.5893 113.275 13.6959C113.232 13.7813 113.2 13.8559 113.179 13.9199C113.158 13.9626 113.147 13.9839 113.147 13.9839C113.232 13.9839 113.424 13.8879 113.723 13.6959C114.022 13.5039 114.374 13.2906 114.779 13.0559C115.099 12.8213 115.376 12.6079 115.611 12.4159C115.867 12.2026 116.08 12.0426 116.251 11.9359C116.422 11.8079 116.528 11.7439 116.571 11.7439C116.656 11.7439 116.763 11.7119 116.891 11.6479C117.019 11.5839 117.126 11.5093 117.211 11.4239C117.296 11.3386 117.36 11.2959 117.403 11.2959C117.467 11.2746 117.499 11.2639 117.499 11.2639C117.499 11.2639 117.542 11.2639 117.627 11.2639C117.712 11.2426 117.798 11.1893 117.883 11.1039C118.054 10.9759 118.278 10.9439 118.555 11.0079C118.832 11.0506 119.088 11.1573 119.323 11.3279C119.558 11.4986 119.675 11.6906 119.675 11.9039C119.675 11.9893 119.696 12.0639 119.739 12.1279C119.803 12.1706 119.835 12.1919 119.835 12.1919C120.006 12.1919 120.112 12.4586 120.155 12.9919C120.219 13.5253 120.166 14.0373 119.995 14.5279C119.995 14.8479 119.931 15.2319 119.803 15.6799C119.696 16.1279 119.6 16.5546 119.515 16.9599C119.344 17.4933 119.227 17.9626 119.163 18.3679C119.099 18.7733 119.088 19.1146 119.131 19.3919C119.174 19.6693 119.248 19.8933 119.355 20.0639C119.44 20.2133 119.44 20.3839 119.355 20.5759C119.27 20.7466 119.099 20.8319 118.843 20.8319ZM125.089 20.2879C124.919 20.3306 124.695 20.3519 124.417 20.3519C124.14 20.3306 123.895 20.2986 123.681 20.2559C123.489 20.1919 123.393 20.1279 123.393 20.0639C123.393 19.9573 123.34 19.9039 123.233 19.9039C123.233 19.9039 123.18 19.8613 123.073 19.7759C122.988 19.6906 122.849 19.6053 122.657 19.5199C122.465 19.2213 122.369 18.9013 122.369 18.5599C122.369 18.1973 122.465 17.6319 122.657 16.8639C122.721 16.3306 122.924 15.7119 123.265 15.0079C123.628 14.2826 124.065 13.5466 124.577 12.7999C125.089 12.0533 125.623 11.3813 126.177 10.7839C126.753 10.1866 127.276 9.74928 127.745 9.47194C128.044 9.17328 128.407 9.01328 128.833 8.99194C129.26 8.97061 129.665 9.06661 130.049 9.27994C130.263 9.38661 130.476 9.55727 130.689 9.79194C130.903 10.0266 131.105 10.2826 131.297 10.5599C131.489 10.8373 131.649 11.1146 131.777 11.3919C131.841 11.6266 131.873 11.8399 131.873 12.0319C131.895 12.2026 131.895 12.4159 131.873 12.6719C131.873 12.9279 131.841 13.3119 131.777 13.8239C131.671 14.2079 131.575 14.6773 131.489 15.2319C131.425 15.7866 131.393 16.2666 131.393 16.6719C131.351 17.0773 131.393 17.3653 131.521 17.5359C131.671 17.7066 131.884 17.7173 132.161 17.5679C132.417 17.4399 132.663 17.3866 132.897 17.4079C133.132 17.4079 133.313 17.4719 133.441 17.5999C133.591 17.7279 133.665 17.9199 133.665 18.1759C133.665 18.4319 133.537 18.6986 133.281 18.9759C133.047 19.2319 132.748 19.4559 132.385 19.6479C132.044 19.8186 131.713 19.9039 131.393 19.9039C131.159 19.9039 130.935 19.7653 130.721 19.4879C130.508 19.1893 130.316 18.8373 130.145 18.4319C129.996 18.0053 129.857 17.5999 129.729 17.2159L129.537 16.4799L128.161 17.7919C127.884 18.0906 127.607 18.3679 127.329 18.6239C127.073 18.8586 126.913 19.0293 126.849 19.1359C126.743 19.3279 126.54 19.5199 126.241 19.7119C125.964 19.9039 125.58 20.0959 125.089 20.2879ZM125.185 18.3999C125.548 18.1866 125.964 17.8773 126.433 17.4719C126.903 17.0453 127.361 16.5866 127.809 16.0959C128.257 15.5839 128.631 15.1146 128.929 14.6879C129.292 14.1973 129.569 13.7386 129.761 13.3119C129.953 12.8853 130.092 12.4799 130.177 12.0959C130.092 11.8613 129.953 11.6159 129.761 11.3599C129.569 11.0826 129.399 10.9333 129.249 10.9119C128.78 10.9119 128.279 11.2106 127.745 11.8079C127.233 12.3839 126.732 13.0133 126.241 13.6959C126.156 13.8026 126.039 13.9733 125.889 14.2079C125.74 14.4426 125.591 14.6666 125.441 14.8799C125.313 15.0719 125.228 15.1999 125.185 15.2639C125.121 15.3493 124.993 15.5946 124.801 15.9999C124.631 16.3839 124.46 16.7786 124.289 17.1839C124.119 17.5679 124.033 17.8239 124.033 17.9519C124.033 18.0799 124.044 18.2186 124.065 18.3679C124.108 18.5173 124.215 18.6133 124.385 18.6559C124.556 18.6986 124.823 18.6133 125.185 18.3999ZM39.0552 47.2799C38.9699 47.3653 38.7352 47.3973 38.3512 47.3759C37.9886 47.3546 37.6472 47.2693 37.3272 47.1199C37.2846 47.0559 37.2099 46.9919 37.1032 46.9279C36.9966 46.8426 36.8899 46.7466 36.7832 46.6399C36.6979 46.5333 36.6232 46.4373 36.5592 46.3519C36.5166 46.2879 36.4099 46.1706 36.2392 45.9999C36.0686 45.8079 35.8979 45.6266 35.7272 45.4559C35.5566 45.2853 35.4392 45.1679 35.3752 45.1039C35.2899 44.9333 35.1192 44.7199 34.8632 44.4639C34.6072 44.1866 34.3619 43.9306 34.1272 43.6959C33.9779 43.4826 33.8286 43.3013 33.6792 43.1519C33.5299 43.0026 33.4019 42.8959 33.2952 42.8319C33.1886 42.7466 33.1032 42.7039 33.0392 42.7039C33.0392 42.7039 32.9966 42.8426 32.9112 43.1199C32.8472 43.3759 32.7512 43.7066 32.6232 44.1119C32.5166 44.4959 32.3992 44.8906 32.2712 45.2959C32.1646 45.6799 32.0792 45.9893 32.0152 46.2239C31.8659 46.5226 31.7379 46.7253 31.6312 46.8319C31.5246 46.9386 31.3859 46.9919 31.2152 46.9919C30.9806 46.9919 30.7672 46.8853 30.5752 46.6719C30.4046 46.4586 30.3192 46.1493 30.3192 45.7439C30.2339 45.4453 30.3406 44.7946 30.6392 43.7919C30.9379 42.7893 31.3966 41.5093 32.0152 39.9519C32.1006 39.6319 32.2072 39.3013 32.3352 38.9599C32.4632 38.5973 32.5699 38.2986 32.6552 38.0639C32.8686 37.3599 33.0926 36.7093 33.3272 36.1119C33.5832 35.4933 33.8499 34.8746 34.1272 34.2559C34.4046 33.6159 34.6926 32.9333 34.9912 32.2079C35.1832 31.8239 35.3219 31.5466 35.4072 31.3759C35.4926 31.1839 35.5886 30.9919 35.6952 30.7999C35.8019 30.5866 35.9619 30.2773 36.1752 29.8719C36.6446 28.9973 37.0179 28.3146 37.2952 27.8239C37.5726 27.3333 37.7859 26.9706 37.9352 26.7359C38.0846 26.5013 38.2126 26.3306 38.3192 26.2239C38.4259 26.1173 38.5539 26.0426 38.7032 25.9999C38.8526 25.9573 39.0019 25.9573 39.1512 25.9999C39.3006 26.0213 39.4286 26.0959 39.5352 26.2239C39.7059 26.3946 39.8019 26.5759 39.8232 26.7679C39.8659 26.9386 39.8232 27.1733 39.6952 27.4719C39.5886 27.7706 39.3752 28.1866 39.0552 28.7199C38.8846 29.1039 38.7459 29.3813 38.6392 29.5519C38.5326 29.7226 38.4259 29.8933 38.3192 30.0639C38.2126 30.2346 38.0419 30.5333 37.8072 30.9599C37.7646 31.0879 37.7006 31.2266 37.6152 31.3759C37.5299 31.5253 37.4339 31.5999 37.3272 31.5999C37.3272 31.6639 37.2952 31.7919 37.2312 31.9839C37.1672 32.1759 37.0926 32.3573 37.0072 32.5279C36.9432 32.7626 36.8366 33.0186 36.6872 33.2959C36.5592 33.5519 36.4632 33.7653 36.3992 33.9359C36.2926 34.1919 36.1219 34.5439 35.8872 34.9919C35.6739 35.4399 35.4606 35.8773 35.2472 36.3039C35.0552 36.7093 34.9379 37.0293 34.8952 37.2639C34.8952 37.3493 34.9592 37.3386 35.0872 37.2319C35.2152 37.1253 35.3539 37.0293 35.5032 36.9439C35.8232 36.6879 36.1859 36.4319 36.5912 36.1759C37.0179 35.8986 37.4232 35.6639 37.8072 35.4719C38.2126 35.2586 38.5432 35.1306 38.7992 35.0879C39.1192 35.0026 39.3752 34.9599 39.5672 34.9599C39.7806 34.9599 39.9939 35.0026 40.2072 35.0879C40.3779 35.1733 40.5166 35.2906 40.6232 35.4399C40.7512 35.5893 40.8579 35.7599 40.9432 35.9519C41.0499 36.1439 41.1246 36.3786 41.1672 36.6559C41.1672 36.8479 41.0926 37.1679 40.9432 37.6159C40.7939 38.0639 40.6126 38.5013 40.3992 38.9279C40.1859 39.3333 39.9726 39.6213 39.7592 39.7919C39.6099 39.8559 39.4926 39.9199 39.4072 39.9839C39.3219 40.0479 39.2792 40.0799 39.2792 40.0799C39.2792 40.1653 39.2366 40.2719 39.1512 40.3999C39.0872 40.5279 38.9699 40.6346 38.7992 40.7199C38.7139 40.8053 38.6179 40.9119 38.5112 41.0399C38.4046 41.1679 38.3512 41.2639 38.3512 41.3279C38.3512 41.3279 38.3512 41.3599 38.3512 41.4239C38.3512 41.4666 38.3512 41.4879 38.3512 41.4879C38.2659 41.4879 38.1379 41.5519 37.9672 41.6799C37.8179 41.8079 37.6259 41.9573 37.3912 42.1279C37.1566 42.3626 36.9859 42.4906 36.8792 42.5119C36.7939 42.5333 36.6659 42.5759 36.4952 42.6399C36.4526 42.6826 36.3992 42.7146 36.3352 42.7359C36.2926 42.7573 36.2392 42.7786 36.1752 42.7999C36.1326 42.8213 36.0899 42.8426 36.0472 42.8639C36.0259 42.8853 36.0152 42.9173 36.0152 42.9599C36.0152 43.0453 36.1112 43.2266 36.3032 43.5039C36.5166 43.7599 36.7619 44.0479 37.0392 44.3679C37.3379 44.6879 37.6152 44.9866 37.8712 45.2639C38.1486 45.5199 38.3512 45.6906 38.4792 45.7759C38.6926 45.8613 38.8419 46.0106 38.9272 46.2239C39.0339 46.4159 39.0979 46.6186 39.1192 46.8319C39.1406 47.0239 39.1192 47.1733 39.0552 47.2799ZM35.2152 41.6159C35.3219 41.5306 35.5459 41.3599 35.8872 41.1039C36.2286 40.8266 36.6019 40.5279 37.0072 40.2079C37.4126 39.8666 37.7752 39.5466 38.0952 39.2479C38.4366 38.9279 38.6712 38.6933 38.7992 38.5439C38.9486 38.3946 39.0979 38.1386 39.2472 37.7759C39.3966 37.4133 39.4179 37.1253 39.3112 36.9119C39.2899 36.8266 39.0979 36.8693 38.7352 37.0399C38.3726 37.2106 37.9566 37.4133 37.4872 37.6479C37.1246 37.8613 36.6979 38.1386 36.2072 38.4799C35.7379 38.8213 35.2899 39.1839 34.8632 39.5679C34.4579 39.9519 34.1486 40.3253 33.9352 40.6879C33.8926 40.8373 33.9352 41.0079 34.0632 41.1999C34.1912 41.3919 34.3619 41.5413 34.5752 41.6479C34.7886 41.7333 35.0019 41.7226 35.2152 41.6159ZM45.0787 46.6719C44.6521 46.6293 44.3854 46.5759 44.2787 46.5119C44.1934 46.4479 44.0867 46.2773 43.9587 45.9999C43.7881 45.8079 43.6814 45.6586 43.6387 45.5519C43.6174 45.4453 43.6174 45.3493 43.6387 45.2639C43.7454 45.2639 43.8414 45.2639 43.9267 45.2639C44.0121 45.2426 44.0654 45.1999 44.0867 45.1359C44.0867 45.0719 44.1187 45.0293 44.1827 45.0079C44.2681 44.9866 44.3534 44.9866 44.4387 45.0079C44.8441 45.0293 45.3561 44.9013 45.9747 44.6239C46.6147 44.3253 47.2974 43.9199 48.0227 43.4079C48.7694 42.8746 49.4947 42.2879 50.1987 41.6479C50.7534 40.9226 51.1587 40.3573 51.4147 39.9519C51.6707 39.5253 51.8201 39.1839 51.8627 38.9279C51.9054 38.6506 51.8734 38.4159 51.7667 38.2239C51.6814 38.0533 51.3721 37.9893 50.8387 38.0319C50.3054 38.0533 49.7081 38.2773 49.0467 38.7039C48.1294 39.2799 47.3934 39.8133 46.8387 40.3039C46.2841 40.7946 45.7721 41.3493 45.3027 41.9679C45.1321 42.1813 44.9614 42.4373 44.7907 42.7359C44.6414 43.0346 44.5134 43.2906 44.4067 43.5039C44.3001 43.7173 44.2467 43.8239 44.2467 43.8239C44.2467 43.9093 44.1187 44.0159 43.8627 44.1439C43.6281 44.2719 43.4254 44.3359 43.2547 44.3359C43.1694 44.2933 43.0521 44.2186 42.9027 44.1119C42.7747 43.9839 42.6894 43.8239 42.6467 43.6319C42.4974 43.5253 42.3907 43.4399 42.3267 43.3759C42.2627 43.3119 42.2201 43.2373 42.1987 43.1519C42.1774 43.0239 42.2094 42.8213 42.2947 42.5439C42.3801 42.2666 42.4974 41.8293 42.6467 41.2319C42.7747 40.6773 42.9134 40.1013 43.0627 39.5039C43.2334 38.9066 43.3934 38.3946 43.5427 37.9679C43.6921 37.5413 43.7987 37.3066 43.8627 37.2639C43.8627 37.2639 43.9054 37.1679 43.9907 36.9759C44.0761 36.7839 44.1187 36.5599 44.1187 36.3039C44.1614 36.0479 44.2254 35.8239 44.3107 35.6319C44.4174 35.4399 44.4707 35.3013 44.4707 35.2159C44.5561 35.1519 44.6841 34.8959 44.8547 34.4479C45.0254 33.9999 45.2387 33.4133 45.4947 32.6879C45.4947 32.6239 45.5694 32.4213 45.7187 32.0799C45.8681 31.7173 46.0494 31.3013 46.2627 30.8319C46.4761 30.3413 46.6894 29.8399 46.9027 29.3279C47.1374 28.7946 47.3294 28.3253 47.4787 27.9199C47.7347 27.5573 47.9267 27.2266 48.0547 26.9279C48.2041 26.6079 48.3534 26.4159 48.5027 26.3519C48.6094 26.3306 48.7374 26.3413 48.8867 26.3839C49.0574 26.4053 49.2174 26.4586 49.3667 26.5439C49.5374 26.6293 49.6761 26.7573 49.7827 26.9279C49.8467 27.0346 49.8894 27.1306 49.9107 27.2159C49.9321 27.3013 49.9001 27.4613 49.8147 27.6959C49.7294 27.9093 49.5587 28.2826 49.3027 28.8159C49.0681 29.3279 48.7161 30.0746 48.2467 31.0559C47.6494 32.3359 47.1587 33.4773 46.7747 34.4799C46.3907 35.4826 46.0707 36.3679 45.8147 37.1359C45.5587 37.9039 45.3241 38.5653 45.1107 39.1199L44.9507 39.8239L45.7507 39.0559C46.0707 38.8213 46.4227 38.5333 46.8067 38.1919C47.1907 37.8506 47.5321 37.5519 47.8307 37.2959C48.0014 37.1679 48.2254 37.0399 48.5027 36.9119C48.8014 36.7626 49.0894 36.6346 49.3667 36.5279C49.6441 36.4213 49.8467 36.3573 49.9747 36.3359C50.0387 36.3146 50.1987 36.2826 50.4547 36.2399C50.7107 36.1973 51.0201 36.1759 51.3827 36.1759C51.8521 36.1759 52.2254 36.2826 52.5027 36.4959C52.8014 36.7093 53.0894 37.0506 53.3667 37.5199C53.6014 37.9679 53.6974 38.4799 53.6547 39.0559C53.6121 39.6106 53.4414 40.1333 53.1427 40.6239C53.0361 40.7093 52.9294 40.8266 52.8227 40.9759C52.7161 41.1039 52.6627 41.2106 52.6627 41.2959C52.6414 41.4453 52.4494 41.7546 52.0867 42.2239C51.7241 42.6719 51.3614 43.0986 50.9987 43.5039C50.6147 43.9093 50.1454 44.3146 49.5907 44.7199C49.0361 45.1039 48.4814 45.4559 47.9267 45.7759C47.3934 46.0746 46.9347 46.2879 46.5507 46.4159C46.3801 46.4373 46.1347 46.4799 45.8147 46.5439C45.4947 46.5866 45.2494 46.6293 45.0787 46.6719ZM56.713 46.4479C55.881 46.1066 55.337 45.6373 55.081 45.0399C54.8463 44.4213 54.8036 43.4719 54.953 42.1919C54.9956 41.5306 55.017 41.0933 55.017 40.8799C55.017 40.6666 54.8996 40.4533 54.665 40.2399C54.601 40.1546 54.4836 40.0373 54.313 39.8879C54.1636 39.7386 54.0996 39.6106 54.121 39.5039C54.0996 39.3546 54.1103 39.1946 54.153 39.0239C54.1956 38.8319 54.2596 38.7359 54.345 38.7359C54.4303 38.7359 54.5156 38.7146 54.601 38.6719C54.7076 38.6293 54.8036 38.6293 54.889 38.6719C54.9743 38.6719 55.0703 38.6826 55.177 38.7039C55.2836 38.7253 55.337 38.7786 55.337 38.8639C55.4223 39.0133 55.561 39.0346 55.753 38.9279C55.945 38.7999 56.1476 38.5226 56.361 38.0959C56.5743 37.7546 56.8516 37.4133 57.193 37.0719C57.5556 36.7306 57.9076 36.4213 58.249 36.1439C58.6116 35.8453 58.9103 35.6319 59.145 35.5039C59.2516 35.4613 59.4116 35.4079 59.625 35.3439C59.8383 35.2799 60.0623 35.2266 60.297 35.1839C60.553 35.1413 60.7663 35.1306 60.937 35.1519C61.321 35.1733 61.641 35.2799 61.897 35.4719C62.1743 35.6639 62.4303 35.8879 62.665 36.1439C62.9423 36.3359 63.113 36.5919 63.177 36.9119C63.2623 37.2319 63.2836 37.5733 63.241 37.9359C63.1983 38.2986 63.1023 38.6293 62.953 38.9279C62.889 39.1413 62.7076 39.3973 62.409 39.6959C62.1103 39.9946 61.769 40.2826 61.385 40.5599C61.001 40.8373 60.649 41.0399 60.329 41.1679C60.0516 41.2319 59.689 41.2853 59.241 41.3279C58.8143 41.3706 58.409 41.3919 58.025 41.3919C57.6623 41.3706 57.417 41.3279 57.289 41.2639C57.1396 41.1786 57.0223 41.2959 56.937 41.6159C56.8516 41.9359 56.7876 42.3946 56.745 42.9919C56.7023 43.4613 56.7023 43.8026 56.745 44.0159C56.7876 44.2293 56.8303 44.3786 56.873 44.4639C57.0223 44.6133 57.225 44.8053 57.481 45.0399C57.7583 45.2533 58.1423 45.2853 58.633 45.1359C59.0383 45.0293 59.433 44.7519 59.817 44.3039C60.2223 43.8559 60.5956 43.4933 60.937 43.2159C61.0223 43.0666 61.161 42.9813 61.353 42.9599C61.5663 42.9173 61.7903 42.9279 62.025 42.9919C62.2596 43.1413 62.3556 43.3226 62.313 43.5359C62.2916 43.7279 62.185 44.0266 61.993 44.4319C61.929 44.5813 61.7796 44.7733 61.545 45.0079C61.3316 45.2213 61.0863 45.4453 60.809 45.6799C60.553 45.8933 60.3183 46.0639 60.105 46.1919C59.465 46.5333 58.8676 46.7146 58.313 46.7359C57.7583 46.7359 57.225 46.6399 56.713 46.4479ZM58.601 39.9519C59.0703 39.8453 59.4436 39.7706 59.721 39.7279C59.9983 39.6853 60.265 39.5679 60.521 39.3759C60.777 39.1626 61.097 38.7679 61.481 38.1919C61.5663 37.9573 61.5876 37.7226 61.545 37.4879C61.5236 37.2533 61.4703 37.0933 61.385 37.0079C61.193 36.7946 60.9583 36.7306 60.681 36.8159C60.425 36.8799 60.1796 36.9973 59.945 37.1679C59.7956 37.2319 59.5716 37.3919 59.273 37.6479C58.9956 37.8826 58.7183 38.1599 58.441 38.4799C58.1636 38.7786 57.9396 39.0559 57.769 39.3119C57.5983 39.5679 57.5556 39.7173 57.641 39.7599C57.5983 39.8453 57.7156 39.8986 57.993 39.9199C58.2916 39.9413 58.4943 39.9519 58.601 39.9519ZM64.1432 46.0639C64.0579 45.8933 63.9512 45.7653 63.8232 45.6799C63.6952 45.5733 63.6312 45.4773 63.6312 45.3919C63.6312 45.3066 63.6206 45.2213 63.5992 45.1359C63.5992 45.0293 63.5566 44.9333 63.4712 44.8479C63.3646 44.7199 63.3752 44.4319 63.5032 43.9839C63.6312 43.5146 63.8446 42.9493 64.1432 42.2879C64.4419 41.6053 64.7939 40.8906 65.1992 40.1439C65.3699 39.9733 65.5406 39.7493 65.7112 39.4719C65.8819 39.1946 66.0099 39.0133 66.0952 38.9279C66.0952 38.8426 66.1272 38.7679 66.1912 38.7039C66.2552 38.6186 66.3299 38.5759 66.4152 38.5759V38.3839C66.4152 38.2773 66.5112 38.0959 66.7032 37.8399C66.9166 37.5839 67.1726 37.3066 67.4712 37.0079C67.7699 36.6879 68.0792 36.3893 68.3992 36.1119C68.7192 35.8133 68.9859 35.5999 69.1992 35.4719C69.6472 35.1733 70.1059 34.9919 70.5752 34.9279C71.0659 34.8639 71.4819 34.9706 71.8232 35.2479C71.8872 35.3119 71.9939 35.4186 72.1432 35.5679C72.2926 35.7173 72.4632 35.8879 72.6552 36.0799C72.8686 36.2506 73.0819 36.4319 73.2952 36.6239L74.4792 37.6799L73.9032 39.2799C73.6259 40.1333 73.5512 40.8799 73.6792 41.5199C73.8286 42.1599 74.0419 42.7146 74.3192 43.1839C74.4259 43.4186 74.6392 43.6426 74.9592 43.8559C75.3006 44.0693 75.6206 44.1973 75.9192 44.2399C76.0899 44.2613 76.2499 44.3253 76.3992 44.4319C76.5486 44.5386 76.6232 44.7093 76.6232 44.9439C76.6232 45.1573 76.5806 45.3279 76.4952 45.4559C76.4099 45.5839 76.2606 45.6693 76.0472 45.7119C75.3432 45.7973 74.6819 45.6266 74.0632 45.1999C73.4659 44.7733 72.9112 44.0693 72.3992 43.0879C72.3139 42.9599 72.1966 42.7253 72.0472 42.3839C71.9192 42.0213 71.8446 41.7866 71.8232 41.6799C71.7379 41.7866 71.5779 41.9893 71.3432 42.2879C71.1086 42.5653 70.9272 42.7679 70.7992 42.8959C69.2846 44.4319 67.9726 45.4666 66.8632 45.9999C65.7752 46.5119 64.8686 46.5333 64.1432 46.0639ZM65.2952 44.2719C65.2952 44.4213 65.5192 44.4213 65.9672 44.2719C66.4366 44.1013 66.9379 43.8026 67.4712 43.3759C68.1966 42.7573 68.9219 42.0746 69.6472 41.3279C70.3939 40.5813 70.9912 39.8879 71.4392 39.2479L72.1432 38.0959C71.9299 37.6053 71.6952 37.2746 71.4392 37.1039C71.2046 36.9119 71.0019 36.8159 70.8312 36.8159C70.5539 36.8159 70.1379 37.0719 69.5832 37.5839C69.0499 38.0959 68.4739 38.7786 67.8552 39.6319C67.2366 40.4853 66.6499 41.4239 66.0952 42.4479C65.8819 42.8746 65.6899 43.2906 65.5192 43.6959C65.3699 44.0799 65.2952 44.2719 65.2952 44.2719ZM84.448 47.1519C84.2986 47.2373 84.096 47.2053 83.84 47.0559C83.6053 46.9066 83.3706 46.6826 83.136 46.3839C82.9866 46.1279 82.88 45.8506 82.816 45.5519C82.7733 45.2533 82.752 44.8373 82.752 44.3039C82.7733 43.8773 82.752 43.5999 82.688 43.4719C82.6453 43.3439 82.528 43.3653 82.336 43.5359C82.144 43.6853 81.8133 43.9946 81.344 44.4639C80.8106 44.9973 80.2986 45.4133 79.808 45.7119C79.3386 46.0106 78.9546 46.1493 78.656 46.1279C78.5066 46.1279 78.336 46.0533 78.144 45.9039C77.9733 45.7333 77.8133 45.5306 77.664 45.2959C77.5146 45.0399 77.3866 44.7839 77.28 44.5279C77.152 44.0586 77.1306 43.4613 77.216 42.7359C77.3226 41.9893 77.4933 41.2106 77.728 40.3999C77.9626 39.5893 78.2293 38.8213 78.528 38.0959C78.848 37.3706 79.168 36.7839 79.488 36.3359C79.8293 35.8879 80.128 35.6639 80.384 35.6639C80.5546 35.6639 80.704 35.7493 80.832 35.9199C80.9813 36.0906 81.1306 36.3573 81.28 36.7199C81.3653 36.8693 81.3973 36.9973 81.376 37.1039C81.376 37.2106 81.2906 37.3386 81.12 37.4879C80.928 37.7439 80.704 38.1279 80.448 38.6399C80.2133 39.1519 79.9786 39.7066 79.744 40.3039C79.5306 40.9013 79.3386 41.4773 79.168 42.0319C78.9973 42.5866 78.88 43.0453 78.816 43.4079C78.752 43.7493 78.7626 43.9199 78.848 43.9199C79.1466 43.9199 79.4986 43.8026 79.904 43.5679C80.3306 43.3119 80.736 43.0026 81.12 42.6399C81.568 42.1919 81.9626 41.7013 82.304 41.1679C82.6666 40.6346 83.0293 40.0693 83.392 39.4719C83.6693 39.0453 83.9573 38.5759 84.256 38.0639C84.576 37.5519 84.7786 37.1893 84.864 36.9759C85.1626 36.4213 85.3866 36.0479 85.536 35.8559C85.6853 35.6426 85.8666 35.5039 86.08 35.4399C86.1866 35.4399 86.2826 35.4399 86.368 35.4399C86.4746 35.4399 86.528 35.4399 86.528 35.4399C86.656 35.4613 86.8053 35.5573 86.976 35.7279C87.1466 35.8133 87.2426 35.8986 87.264 35.9839C87.2853 36.0479 87.296 36.1333 87.296 36.2399C87.2106 36.4533 87.072 36.7733 86.88 37.1999C86.7093 37.6053 86.5813 37.9039 86.496 38.0959C86.0906 39.0133 85.6853 39.9199 85.28 40.8159C84.896 41.6906 84.6186 42.5866 84.448 43.5039C84.4053 43.8026 84.3946 44.1546 84.416 44.5599C84.4586 44.9439 84.5226 45.2213 84.608 45.3919C84.672 45.5199 84.7466 45.6693 84.832 45.8399C84.9386 45.9893 85.056 46.1173 85.184 46.2239C85.376 46.3519 85.408 46.4906 85.28 46.6399C85.1733 46.7893 85.024 46.9173 84.832 47.0239C84.64 47.1093 84.512 47.1519 84.448 47.1519ZM91.8117 47.1519C91.5131 47.0666 91.2677 46.9706 91.0757 46.8639C90.8837 46.7359 90.6277 46.5333 90.3077 46.2559C90.0517 45.9146 89.8491 45.5946 89.6997 45.2959C89.5717 44.9973 89.4864 44.6559 89.4437 44.2719C89.4011 43.8666 89.3797 43.3546 89.3797 42.7359C89.3797 42.4799 89.4224 42.0959 89.5077 41.5839C89.6144 41.0719 89.7317 40.5386 89.8597 39.9839C90.0091 39.4079 90.1371 38.8959 90.2437 38.4479C90.3717 37.9999 90.4464 37.7119 90.4677 37.5839C90.5317 37.3066 90.4251 37.1466 90.1477 37.1039C89.8704 37.0613 89.5611 37.0506 89.2197 37.0719C88.8997 37.0719 88.6864 37.0399 88.5797 36.9759C88.4944 36.9546 88.4517 36.9226 88.4517 36.8799C88.4517 36.8159 88.4517 36.7839 88.4517 36.7839C88.4517 36.6986 88.4411 36.6453 88.4197 36.6239C88.4197 36.5813 88.3877 36.5066 88.3237 36.3999C88.2811 36.3146 88.3024 36.1973 88.3877 36.0479C88.4944 35.8773 88.6651 35.7706 88.8997 35.7279C89.0917 35.6853 89.3477 35.6533 89.6677 35.6319C90.0091 35.5893 90.3504 35.5146 90.6917 35.4079C91.0331 35.2799 91.3104 35.0879 91.5237 34.8319C91.7157 34.3626 91.9397 33.8399 92.1957 33.2639C92.4517 32.6879 92.6971 32.1759 92.9317 31.7279C93.1877 31.2586 93.3584 30.9706 93.4437 30.8639C93.8064 30.6719 94.0731 30.5973 94.2437 30.6399C94.4144 30.6613 94.6064 30.8426 94.8197 31.1839C94.9264 31.3333 95.0011 31.4506 95.0437 31.5359C95.1077 31.6213 95.1184 31.7493 95.0757 31.9199C95.0331 32.0906 94.9157 32.3573 94.7237 32.7199C94.5531 33.0826 94.2864 33.6053 93.9237 34.2879C93.8171 34.5013 93.7211 34.6933 93.6357 34.8639C93.5504 35.0133 93.5077 35.0879 93.5077 35.0879C93.5931 35.1093 93.7211 35.1199 93.8917 35.1199C94.0624 35.1199 94.2757 35.1093 94.5317 35.0879C94.7664 35.0453 95.0651 35.0133 95.4277 34.9919C95.7904 34.9493 96.0784 34.9493 96.2917 34.9919C96.7824 34.9919 97.1451 35.0879 97.3797 35.2799C97.6144 35.4506 97.7424 35.7493 97.7637 36.1759C97.8064 36.4106 97.7531 36.5493 97.6037 36.5919C97.4757 36.6346 97.1237 36.6559 96.5477 36.6559C96.3557 36.6559 96.0571 36.6666 95.6517 36.6879C95.2464 36.7093 94.8197 36.7306 94.3717 36.7519C93.9451 36.7733 93.5717 36.8053 93.2517 36.8479C92.9531 36.8693 92.8037 36.9013 92.8037 36.9439C92.7397 36.9866 92.6331 37.1893 92.4837 37.5519C92.3557 37.9146 92.2171 38.3306 92.0677 38.7999C91.9397 39.2479 91.8224 39.6533 91.7157 40.0159C91.5664 40.7413 91.4491 41.4666 91.3637 42.1919C91.2997 42.9173 91.2891 43.5466 91.3317 44.0799C91.3744 44.6133 91.4917 44.9866 91.6837 45.1999C91.8757 45.3919 92.2491 45.4346 92.8037 45.3279C93.3584 45.1999 93.8064 44.9973 94.1477 44.7199C94.5317 44.3999 94.8411 44.2399 95.0757 44.2399C95.3317 44.2399 95.4704 44.3573 95.4917 44.5919C95.5344 44.8053 95.4171 45.1146 95.1397 45.5199C94.8837 45.9039 94.5637 46.2453 94.1797 46.5439C93.7957 46.8213 93.3904 47.0239 92.9637 47.1519C92.5584 47.2586 92.1744 47.2586 91.8117 47.1519ZM99.6855 54.5759C99.6642 54.6186 99.5682 54.5759 99.3975 54.4479C99.2482 54.3199 99.0988 54.1599 98.9495 53.9679C98.8002 53.7973 98.7362 53.6479 98.7575 53.5199C98.6722 53.2213 98.6828 52.8479 98.7895 52.3999C98.9175 51.9733 99.1842 51.3333 99.5895 50.4799C99.8028 50.1386 99.9948 49.7333 100.165 49.2639C100.357 48.7946 100.571 48.3253 100.805 47.8559C100.912 47.6639 101.147 47.2479 101.509 46.6079C101.872 45.9679 102.256 45.2426 102.661 44.4319C103.088 43.6213 103.44 42.8533 103.717 42.1279C103.163 42.7039 102.651 43.2906 102.181 43.8879C101.712 44.4639 101.275 44.9333 100.869 45.2959C100.485 45.6586 100.123 45.8293 99.7815 45.8079C99.5042 45.7439 99.2055 45.6479 98.8855 45.5199C98.5868 45.3706 98.3842 45.1146 98.2775 44.7519C98.1922 44.2826 98.1602 43.6853 98.1815 42.9599C98.2242 42.2346 98.3628 41.1359 98.5975 39.6639C98.7682 38.9386 98.8642 38.3839 98.8855 37.9999C98.9282 37.5946 98.9175 37.2959 98.8535 37.1039C98.7895 36.9119 98.6722 36.7413 98.5015 36.5919C98.2242 36.3359 98.0748 36.1119 98.0535 35.9199C98.0535 35.7066 98.2028 35.5253 98.5015 35.3759C98.9495 35.2693 99.2695 35.2373 99.4615 35.2799C99.6535 35.3013 99.8882 35.4719 100.165 35.7919C100.336 36.0693 100.485 36.3359 100.613 36.5919C100.763 36.8266 100.837 37.2426 100.837 37.8399C100.837 38.0959 100.795 38.4373 100.709 38.8639C100.645 39.2906 100.581 39.6959 100.517 40.0799C100.475 40.4426 100.443 40.6986 100.421 40.8479C100.208 41.6373 100.069 42.3199 100.005 42.8959C99.9628 43.4719 99.9948 43.7599 100.101 43.7599C100.528 43.4186 100.933 43.0346 101.317 42.6079C101.723 42.1599 102.139 41.6586 102.565 41.1039C103.013 40.5279 103.504 39.8773 104.037 39.1519C104.229 38.7893 104.421 38.4373 104.613 38.0959C104.805 37.7546 104.965 37.4026 105.093 37.0399C105.221 36.7626 105.349 36.5386 105.477 36.3679C105.605 36.1973 105.712 36.1013 105.797 36.0799C105.904 36.0373 106.032 36.0479 106.181 36.1119C106.352 36.1759 106.501 36.2506 106.629 36.3359C106.779 36.3999 106.853 36.4533 106.853 36.4959C106.875 36.5173 106.928 36.5386 107.013 36.5599C107.099 36.5813 107.184 36.6026 107.269 36.6239C107.376 36.6239 107.429 36.6559 107.429 36.7199C107.429 36.7626 107.376 36.9013 107.269 37.1359C107.184 37.3706 107.077 37.6373 106.949 37.9359C106.843 38.2133 106.747 38.4693 106.661 38.7039C106.576 38.9173 106.544 39.0453 106.565 39.0879C106.608 39.1306 106.576 39.2906 106.469 39.5679C106.363 39.8239 106.235 40.1119 106.085 40.4319C105.957 40.7519 105.84 41.0399 105.733 41.2959C105.52 41.9999 105.275 42.7039 104.997 43.4079C104.72 44.0906 104.389 44.7733 104.005 45.4559C103.877 45.7119 103.685 46.1066 103.429 46.6399C103.195 47.1733 102.96 47.6959 102.725 48.2079C102.512 48.7413 102.341 49.1466 102.213 49.4239C102.128 49.5946 102 49.8613 101.829 50.2239C101.68 50.6079 101.509 51.0239 101.317 51.4719C101.147 51.9199 100.976 52.3359 100.805 52.7199C100.635 53.1253 100.507 53.4346 100.421 53.6479C100.379 54.0533 100.283 54.3519 100.133 54.5439C100.048 54.5439 99.9522 54.5439 99.8455 54.5439C99.7388 54.5653 99.6855 54.5759 99.6855 54.5759ZM109.088 45.5519C108.682 45.7013 108.341 45.7759 108.064 45.7759C107.808 45.7546 107.52 45.6266 107.2 45.3919C106.794 45.0079 106.656 44.6239 106.784 44.2399C106.933 43.8346 107.285 43.4399 107.84 43.0559C108.224 42.8213 108.501 42.6933 108.672 42.6719C108.864 42.6506 109.152 42.7253 109.536 42.8959C110.176 43.3013 110.453 43.7493 110.368 44.2399C110.304 44.7306 109.877 45.1679 109.088 45.5519ZM113.383 46.0959C113.191 45.9466 113.053 45.7973 112.967 45.6479C112.903 45.4986 112.903 45.2106 112.967 44.7839C113.031 44.1866 113.117 43.6639 113.223 43.2159C113.33 42.7466 113.458 42.2133 113.607 41.6159C113.65 41.3599 113.767 40.9226 113.959 40.3039C114.173 39.6853 114.429 39.0133 114.727 38.2879C115.026 37.5626 115.325 36.8799 115.623 36.2399C115.922 35.5786 116.178 35.0879 116.391 34.7679C116.562 34.6399 116.765 34.5866 116.999 34.6079C117.255 34.6293 117.469 34.7253 117.639 34.8959C117.874 35.0879 117.906 35.4293 117.735 35.9199C117.586 36.3893 117.266 37.1359 116.775 38.1599C116.519 38.7359 116.327 39.1733 116.199 39.4719C116.071 39.7493 116.018 39.9199 116.039 39.9839C116.061 40.0266 116.157 39.9946 116.327 39.8879C116.455 39.6533 116.69 39.3866 117.031 39.0879C117.373 38.7679 117.735 38.4586 118.119 38.1599C118.503 37.8613 118.866 37.5946 119.207 37.3599C119.549 37.1253 119.783 36.9759 119.911 36.9119C120.082 36.8053 120.274 36.7199 120.487 36.6559C120.722 36.5706 120.882 36.5066 120.967 36.4639C121.458 36.2293 121.959 36.1439 122.471 36.2079C122.983 36.2719 123.303 36.4639 123.431 36.7839C123.453 36.9546 123.517 37.0826 123.623 37.1679C123.751 37.2533 123.815 37.2959 123.815 37.2959C123.901 37.2959 123.943 37.3279 123.943 37.3919C123.965 37.4559 123.975 37.4879 123.975 37.4879C123.975 37.6373 123.858 37.7333 123.623 37.7759C123.41 37.7973 123.133 37.8186 122.791 37.8399C122.514 37.8613 122.269 37.9146 122.055 37.9999C121.842 38.0853 121.586 38.1919 121.287 38.3199C120.477 38.7893 119.698 39.2479 118.951 39.6959C118.226 40.1439 117.522 40.7413 116.839 41.4879C116.69 41.6586 116.541 41.8613 116.391 42.0959C116.242 42.3306 116.082 42.5866 115.911 42.8639C115.805 42.9706 115.698 43.2053 115.591 43.5679C115.485 43.9306 115.389 44.2826 115.303 44.6239C115.239 44.9439 115.207 45.1359 115.207 45.1999C115.207 45.1999 115.175 45.3066 115.111 45.5199C115.047 45.7119 114.941 45.9039 114.791 46.0959C114.535 46.4373 114.322 46.6079 114.151 46.6079C113.981 46.6079 113.725 46.4373 113.383 46.0959ZM126.387 46.9279C125.853 46.9706 125.341 46.9386 124.851 46.8319C124.381 46.7253 123.976 46.5439 123.635 46.2879C123.315 46.0106 123.091 45.6799 122.963 45.2959C122.813 44.9973 122.739 44.7946 122.739 44.6879C122.739 44.5599 122.813 44.4533 122.963 44.3679C123.133 44.3679 123.283 44.4213 123.411 44.5279C123.56 44.6133 123.752 44.7093 123.987 44.8159C124.307 45.0933 124.691 45.2426 125.139 45.2639C125.608 45.2853 126.035 45.2106 126.419 45.0399C126.803 44.8693 127.016 44.6559 127.059 44.3999C127.059 44.3146 127.027 44.1653 126.963 43.9519C126.899 43.7386 126.824 43.5146 126.739 43.2799C126.163 42.4693 125.736 41.6693 125.459 40.8799C125.203 40.0693 125.075 39.4079 125.075 38.8959C125.075 38.5119 125.192 38.1066 125.427 37.6799C125.661 37.2319 125.981 36.8586 126.387 36.5599C126.771 36.1546 127.197 35.7919 127.667 35.4719C128.136 35.1519 128.605 34.8746 129.075 34.6399C129.565 34.4053 130.003 34.2346 130.387 34.1279C130.621 34.1279 130.931 34.1599 131.315 34.2239C131.699 34.2879 131.965 34.3626 132.115 34.4479C132.349 34.5333 132.573 34.7679 132.787 35.1519C133 35.5146 133.107 35.8773 133.107 36.2399C133.107 36.3893 133.064 36.5813 132.979 36.8159C132.893 37.0506 132.755 37.3279 132.563 37.6479C132.477 37.8826 132.381 38.1066 132.275 38.3199C132.168 38.5119 132.115 38.6506 132.115 38.7359C132.008 38.9706 131.859 39.0879 131.667 39.0879C131.496 39.0666 131.315 38.9706 131.123 38.7999C130.952 38.6079 130.813 38.3839 130.707 38.1279C130.621 37.8079 130.589 37.5519 130.611 37.3599C130.632 37.1466 130.717 36.9226 130.867 36.6879C131.101 36.4533 131.219 36.2933 131.219 36.2079C131.219 36.1226 131.101 36.0799 130.867 36.0799C130.717 36.0799 130.44 36.1759 130.035 36.3679C129.651 36.5386 129.235 36.7733 128.787 37.0719C128.36 37.3493 127.987 37.6479 127.667 37.9679C127.261 38.3519 127.016 38.6293 126.931 38.7999C126.867 38.9706 126.835 39.2373 126.835 39.5999C126.835 39.8986 126.899 40.2719 127.027 40.7199C127.176 41.1679 127.325 41.4666 127.475 41.6159C127.475 41.6159 127.549 41.7653 127.699 42.0639C127.848 42.3413 128.029 42.6399 128.243 42.9599C128.861 44.3253 129.021 45.3066 128.723 45.9039C128.424 46.5013 127.645 46.8426 126.387 46.9279Z" fill="white"/>
</svg>
